<?xml version="1.0" encoding="UTF-8" standalone="no"?>
<svg
   xmlns:dc="http://purl.org/dc/elements/1.1/"
   xmlns:cc="http://creativecommons.org/ns#"
   xmlns:rdf="http://www.w3.org/1999/02/22-rdf-syntax-ns#"
   xmlns:svg="http://www.w3.org/2000/svg"
   xmlns="http://www.w3.org/2000/svg"
   xmlns:sodipodi="http://sodipodi.sourceforge.net/DTD/sodipodi-0.dtd"
   xmlns:inkscape="http://www.inkscape.org/namespaces/inkscape"
   version="1.1"
   id="svg2182"
   width="761.79736"
   height="779.69983"
   viewBox="0 0 761.79738 779.69983"
   sodipodi:docname="tete_blanc.svg"
   inkscape:version="1.0.2 (e86c870879, 2021-01-15)">
  <metadata
     id="metadata2188">
    <rdf:RDF>
      <cc:Work
         rdf:about="">
        <dc:format>image/svg+xml</dc:format>
        <dc:type
           rdf:resource="http://purl.org/dc/dcmitype/StillImage" />
        <dc:title></dc:title>
      </cc:Work>
    </rdf:RDF>
  </metadata>
  <defs
     id="defs2186" />
  <sodipodi:namedview
     pagecolor="#523030"
     bordercolor="#666666"
     borderopacity="1"
     objecttolerance="10"
     gridtolerance="10"
     guidetolerance="10"
     inkscape:pageopacity="0"
     inkscape:pageshadow="2"
     inkscape:window-width="1904"
     inkscape:window-height="1000"
     id="namedview2184"
     showgrid="false"
     inkscape:zoom="0.79341128"
     inkscape:cx="591.93675"
     inkscape:cy="418.04703"
     inkscape:window-x="8"
     inkscape:window-y="35"
     inkscape:window-maximized="0"
     inkscape:current-layer="g2190"
     fit-margin-top="0"
     fit-margin-left="0"
     fit-margin-right="0"
     fit-margin-bottom="0" />
  <g
     inkscape:groupmode="layer"
     inkscape:label="Image"
     id="g2190"
     transform="translate(-176.76498,-9.6422876)">
    <path
       style="fill:#ffffff;stroke-width:0.48;fill-opacity:1"
       d="M 541.70408,787.52266 C 433.45393,782.00165 334.77539,731.28495 266.20746,645.92885 218.74955,586.85132 189.60823,515.2011 182.20227,439.384 c -1.82195,-18.65185 -2.35228,-45.59614 -1.2395,-62.97514 5.72097,-89.34846 39.48116,-170.95819 98.09143,-237.12 6.28709,-7.09713 22.62409,-23.49733 29.80927,-29.92457 56.6647,-50.687351 123.76724,-82.230081 197.74666,-92.954301 19.04904,-2.76139 27.53506,-3.30675 51.89395,-3.33498 23.03991,-0.0267 27.56348,0.19348 44.88,2.18449 60.41952,6.94687 119.96578,29.81699 170.88,65.63042 38.02536,26.747311 72.33068,61.957721 98.28591,100.878941 34.82275,52.21857 56.41858,111.36617 63.44288,173.76 1.8542,16.47013 2.1913,23.386 2.1876,44.88 0,21.40115 -0.3426,28.32698 -2.1775,44.51698 -12.1233,106.96458 -66.96068,203.53132 -151.89889,267.48863 -58.54401,44.08286 -125.66865,69.23083 -199.2,74.62934 -9.56798,0.70248 -33.59395,0.96878 -43.2,0.47885 z m 38.64,-2.89407 c 92.90074,-5.84942 176.50479,-43.54247 242.16308,-109.17974 39.22593,-39.2134 69.21331,-85.87828 88.68019,-137.99999 3.16152,-8.46471 8.05572,-23.14531 8.16122,-24.48 0.052,-0.65165 -15.76145,-30.40197 -17.98668,-33.84 l -0.93206,-1.44 0.29616,5.76 c 0.39653,7.71139 1.05249,13.53125 2.43456,21.6 l 1.15109,6.72 -1.99479,2.88 c -3.54461,5.11766 -11.78433,15.79656 -14.52643,18.82665 -1.46755,1.62178 -3.40291,3.40263 -4.3007,3.95751 l -1.63244,1.00886 -45.49113,-19.98989 c -25.02015,-10.99444 -45.97786,-20.21164 -46.57272,-20.48265 -1.44629,-0.65899 -2.08935,-2.70485 -2.08935,-6.64719 0,-3.24465 0.0144,-3.28036 2.52,-6.1947 7.47192,-8.69125 8.0989,-10.78106 6.12,-20.39859 -1.41024,-6.85383 -1.3582,-7.23265 1.3514,-9.84437 3.02323,-2.914 13.45152,-9.87019 15.89371,-10.60189 2.42251,-0.7258 3.57403,-0.0547 5.76533,3.36018 1.95129,3.0408 2.3951,5.77461 1.22692,7.55745 -1.56984,2.39588 -0.30652,23.95712 1.60368,27.37046 0.27039,0.48317 4.19732,2.10063 9.8641,4.06293 l 9.41486,3.2602 v -7.57608 -7.57608 l 1.72071,-2.01028 c 2.29881,-2.68563 11.18395,-9.76455 14.31101,-11.40177 3.11486,-1.63083 4.50451,-1.37013 6.17822,1.15901 2.1815,3.2965 2.48534,5.16691 1.53398,9.44316 -0.901,4.04973 -0.78523,9.94453 0.41333,21.05242 l 0.56275,5.21535 5.94884,2.10796 5.94878,2.10802 -0.31454,-3.96336 c -0.173,-2.17982 -0.44837,-8.17531 -0.61196,-13.32331 l -0.29736,-9.36 1.99114,-2.64 c 1.09512,-1.452 4.26595,-5.06466 7.04626,-8.02813 l 5.05516,-5.38813 -7.84248,-14.53187 c -4.31337,-7.99253 -8.63596,-16.16619 -9.6058,-18.16369 -4.38034,-9.02204 -10.10655,-15.76501 -15.55162,-18.31306 -5.39539,-2.52482 -10.36358,-2.25129 -16.70592,0.91976 -6.60106,3.30041 -17.85422,13.82713 -25.24349,23.61392 -8.8956,11.78182 -17.52677,17.013 -28.05701,17.00479 -6.38179,-0.005 -13.97241,-2.40062 -19.11696,-6.0334 -0.7572,-0.53468 -1.53038,-0.77301 -1.74926,-0.53921 -0.21576,0.23046 -2.05882,4.63102 -4.0957,9.77902 -13.58476,34.33425 -26.95041,59.72342 -36.571,69.46973 l -3.6181,3.66532 -0.67814,5.5525 c -0.91666,7.50547 -3.24207,18.70406 -5.2802,25.42795 -6.97497,23.0111 -16.92048,36.44914 -30.06768,40.62624 -9.46953,3.00869 -21.62385,0.72821 -33.31555,-6.25094 l -4.18008,-2.49524 -4.46625,2.08709 c -13.57148,6.342 -29.43826,11.3125 -44.78108,14.02838 -12.44486,2.20287 -18.68548,2.67336 -35.28,2.65983 -18.74371,-0.0154 -28.63771,-0.91863 -46.9355,-4.2852 l -6.13555,-1.12887 -3.46445,1.58232 c -4.72834,2.15952 -11.25658,4.29389 -17.21245,5.62752 -4.3926,0.98362 -6.17473,1.10967 -15.29205,1.08173 -9.55689,-0.0293 -10.6632,-0.12408 -14.96138,-1.28256 -20.40231,-5.49878 -34.68313,-20.36164 -43.14655,-44.905 -1.9673,-5.70504 -4.29051,-14.38392 -5.20542,-19.4461 -0.47007,-2.60083 -0.8043,-3.10934 -5.04803,-7.68 -18.64416,-20.08037 -34.45209,-48.6228 -46.44205,-83.8547 -16.07608,-47.23878 -22.0302,-98.13801 -15.49489,-132.45916 0.91484,-4.80443 1.36125,-4.19736 -5.71519,-7.7721 -9.31851,-4.70738 -22.74999,-8.10337 -31.9739,-8.08424 l -2.17259,0.004 -1.8234,3.79162 c -4.00448,8.327 -12.03739,14.60852 -22.6566,17.71686 -5.97467,1.74884 -9.29432,2.0719 -22.76153,2.21508 -11.47065,0.12195 -14.26402,0.30579 -20.91846,1.37672 -10.27944,1.65431 -14.76357,2.63986 -15.22081,3.3453 -1.09257,1.68567 -1.44111,4.77764 -1.17518,10.42542 0.30539,6.48585 1.63157,13.57277 4.45928,23.82967 1.645,5.96689 1.84757,6.4 3.72873,7.97246 l 1.98922,1.66279 23.38938,0.35619 c 12.86415,0.1959 23.38582,0.17229 23.38147,-0.0525 -0.0285,-1.47367 -1.99158,-10.39879 -2.68643,-12.21372 -0.7153,-1.86836 -0.75165,-2.42852 -0.23805,-3.66847 0.89373,-2.15765 4.57531,-5.67704 8.93238,-8.53887 6.83511,-4.48946 9.87874,-5.15534 12.20103,-2.66931 2.07962,2.22623 2.96703,5.70122 2.62861,10.29325 -0.32227,4.37298 0.65979,10.03071 4.17776,24.06847 2.33441,9.31495 7.85181,26.24358 9.30795,28.5589 2.40623,3.82598 2.6305,6.84591 0.73872,9.94728 -1.74263,2.85684 -12.54349,7.3721 -17.93091,7.49595 -2.5163,0.0578 -2.93851,-0.0759 -3.94895,-1.25057 -1.47738,-1.71756 -1.90404,-4.18051 -1.29997,-7.50433 0.46676,-2.56823 0.39454,-2.93825 -1.63064,-8.35578 -1.16546,-3.1177 -2.24694,-6.3082 -2.4033,-7.08999 -0.15636,-0.78179 -0.47075,-1.53667 -0.69863,-1.67752 -0.36499,-0.22557 -24.18237,1.22843 -32.61796,1.99126 l -3.1563,0.28542 1.16884,3.91969 c 1.57842,5.2932 1.71581,11.29427 0.31952,13.9557 -2.60596,4.96715 -9.45283,4.81515 -19.89576,-0.4417 -6.10556,-3.07346 -12.78085,-7.64628 -16.30211,-11.16754 l -3.13475,-3.13475 -2.28182,1.27399 c -2.62177,1.46379 -4.82542,1.60708 -8.39817,0.54609 -1.60659,-0.4771 -2.89993,-1.2613 -3.75378,-2.27605 l -1.30268,-1.54815 0.25694,-8.16297 0.25694,-8.16297 -2.44135,-3.10656 c -4.44135,-5.6515 -6.12398,-10.19315 -7.09984,-19.16339 -0.61826,-5.68314 -0.48154,-7.52977 0.9456,-12.77201 1.71081,-6.28426 4.01501,-27.82608 3.84195,-35.91818 l -0.0531,-2.48164 -0.65117,2.64 c -0.89827,3.64186 -3.83842,21.51668 -4.73717,28.8 -7.26103,58.84155 -1.53883,117.95121 16.75139,173.04 16.51356,49.73764 42.11194,94.36031 77.1003,134.39999 6.80334,7.78556 25.1845,26.2213 32.84279,32.94039 64.99803,57.02644 143.59178,89.32195 228,93.68908 7.42839,0.38434 32.50743,0.27682 39.6,-0.16973 z m -35.76,-23.72707 c -10.1062,-1.6116 -23.22633,-6.45724 -26.2294,-9.68731 -1.7473,-1.87934 -2.05383,-3.84619 -1.16141,-7.4519 0.41289,-1.66839 3.222,-23.20306 6.24235,-47.85475 5.27986,-43.09277 5.4625,-44.89421 4.73554,-46.71101 -0.99888,-2.49643 -0.26823,-3.91872 2.56992,-5.00261 2.92113,-1.11557 6.18408,-0.62947 13.20811,1.96771 8.8092,3.25724 11.91489,5.44407 11.91489,8.38964 0,0.71112 -0.69081,2.33587 -1.53508,3.61056 l -1.53514,2.31758 -1.0777,36.51187 c -0.59275,20.08152 -0.98222,36.60744 -0.86544,36.72418 0.33648,0.33648 13.92754,-4.18776 18.75168,-6.24212 2.40807,-1.02547 4.73688,-1.86451 5.17512,-1.86451 1.34789,0 6.19848,1.78795 12.92928,4.76583 7.037,3.11332 11.11191,5.42241 11.54064,6.53966 0.38693,1.00834 -1.01184,4.9489 -2.42049,6.81893 -1.66205,2.20641 -4.39603,3.47558 -7.48685,3.47558 -1.9272,0 -4.69776,0.75835 -11.1791,3.05995 -4.73933,1.68298 -11.41052,3.89698 -14.8249,4.92 -5.38368,1.61309 -6.44011,2.10029 -7.95619,3.66951 -1.69488,1.7543 -4.01453,2.8006 -5.99266,2.70307 -0.52973,-0.0259 -2.69117,-0.32309 -4.80317,-0.65986 z m 76.08,-7.74158 c -9.99345,-1.15229 -17.31216,-2.58187 -18.57249,-3.62784 -1.06488,-0.88378 -0.70282,-3.60509 1.12613,-8.46422 0.96446,-2.56248 2.55729,-7.03503 3.53966,-9.93903 l 1.78603,-5.28 -1.84363,-1.58371 c -2.11685,-1.81834 -3.10718,-4.45214 -2.26546,-6.02491 0.67656,-1.26418 1.77888,-2.19375 5.78189,-4.87579 1.93781,-1.2984 3.3324,-2.59608 3.48259,-3.24058 0.13781,-0.59126 0.77703,-4.42301 1.42052,-8.51501 2.39342,-15.2196 4.31505,-33.31608 4.87516,-45.90974 0.28815,-6.4788 0.21999,-7.4748 -0.74596,-10.90094 -0.58469,-2.07389 -0.93932,-4.26365 -0.78812,-4.86615 0.6396,-2.54832 8.95109,-4.09901 25.98144,-4.84737 6.86981,-0.30188 11.26224,0.15288 11.26224,1.16596 0,1.00239 8.9592,16.27508 14.26359,24.31503 16.12953,24.44779 30.84533,41.05291 43.87459,49.50744 3.01147,1.95412 3.24442,2.24092 4.44,5.46652 1.45056,3.91335 1.58611,5.83642 0.48869,6.9338 -3.1993,3.19934 -18.9661,7.45545 -27.61867,7.45545 -6.02434,0 -6.62132,-0.44726 -13.13304,-9.84 -3.5952,-5.18587 -6.6434,-8.82269 -7.4198,-8.85273 -0.70857,-0.0274 -24.59308,13.46328 -29.03472,16.39972 l -2.37936,1.57301 -1.82236,6.96 c -1.00229,3.828 -2.11229,8.41824 -2.46668,10.20048 -1.00852,5.07197 -2.78822,6.44583 -8.7779,6.77616 -2.0759,0.11448 -4.53034,0.12101 -5.45434,0.0144 z m 28.92754,-55.91966 c 3.49387,-1.87469 6.61646,-3.65842 6.93912,-3.9638 0.45744,-0.43291 0.15197,-1.24161 -1.38696,-3.67142 -2.9399,-4.64194 -5.98373,-10.24315 -8.31624,-15.3035 l -2.07758,-4.5073 -0.29002,2.5873 c -0.46416,4.14091 -1.71586,22.88851 -1.71586,25.70001 0,1.41202 0.11141,2.56728 0.24754,2.56728 0.13618,0 3.10618,-1.53384 6.6,-3.40857 z m -183.72754,51.6574 c -5.24333,-1.41566 -12.81858,-5.24241 -20.4,-10.3054 -1.452,-0.96965 -5.55115,-3.4776 -9.10922,-5.57324 -8.11459,-4.77926 -12.73992,-9.07478 -14.43988,-13.41019 -1.59845,-4.07654 -1.63249,-14.36073 -0.0733,-22.14585 2.80104,-13.98562 8.21677,-28.54531 17.35012,-46.64419 4.74179,-9.39644 12.76325,-23.04077 14.80359,-25.18066 1.90396,-1.99685 4.34709,-2.58298 6.39075,-1.53317 2.2792,1.17077 9.7248,6.84058 13.03793,9.92837 2.47239,2.30424 2.76,2.77262 2.76,4.49467 0,1.61578 -0.38897,2.3784 -2.43884,4.78162 -2.94906,3.45739 -4.99666,7.39286 -8.4744,16.28769 -9.95348,25.45757 -16.69635,53.44464 -15.045,62.44603 0.66812,3.64186 1.79762,5.19701 3.9257,5.40519 2.7356,0.26755 5.06918,-0.7621 7.82512,-3.45279 8.28359,-8.08737 17.53009,-29.12136 24.74063,-56.28004 3.07113,-11.56752 4.02232,-16.67976 4.0692,-21.8701 0.042,-4.6464 0.70974,-6.08731 3.60764,-7.78421 1.38365,-0.81028 1.82669,-0.84547 4.13568,-0.32875 2.58005,0.57739 10.88031,4.5769 15.22935,7.33834 3.23601,2.05473 3.43852,2.61744 2.52249,7.00896 -0.42321,2.02891 -1.95576,10.38489 -3.40569,18.56889 -6.1404,34.65898 -11.45967,52.04127 -19.82511,64.78459 -7.10803,10.82794 -17.63727,16.04256 -27.18677,13.46424 z m 263.33285,-42.19867 c -1.77197,-0.98213 -2.4155,-2.63021 -2.45616,-6.29016 l -0.0374,-3.36 -20.82355,-36 c -11.45294,-19.8 -21.53069,-36.84652 -22.39493,-37.88116 -2.94173,-3.52172 -2.25701,-9.61642 1.36829,-12.17861 4.92178,-3.47851 15.0733,-7.33464 19.63776,-7.45959 2.64917,-0.0725 3.40757,0.15264 7.50701,2.2284 2.50805,1.26994 8.09395,4.59994 12.41309,7.39997 15.93705,10.33176 32.59929,19.76856 33.9778,19.24368 0.64152,-0.24422 -31.31184,-36.43209 -34.05312,-38.56584 -2.47368,-1.92542 -3.78657,-3.65764 -3.81,-5.02684 -0.0245,-1.41552 2.34423,-5.7445 4.30925,-7.87628 1.09983,-1.19318 3.6601,-3.23452 5.68939,-4.53628 8.22783,-5.27794 10.67871,-5.24204 13.40612,0.19622 1.26988,2.53214 63.2484,61.68782 67.85932,64.76865 5.93213,3.96365 7.08111,7.07909 4.2096,11.41426 -2.10787,3.1823 -9.15676,9.71774 -14.1551,13.12392 -7.6273,5.19778 -17.19293,9.7895 -20.39386,9.7895 -0.55214,0 -2.12496,-1.05456 -3.49516,-2.34345 -2.07284,-1.94991 -4.10352,-3.05631 -12.09125,-6.58767 -5.28,-2.33428 -14.514,-6.67272 -20.52,-9.64089 -6.006,-2.96823 -10.90349,-5.24175 -10.88328,-5.05234 0.0202,0.18936 4.71821,6.93235 10.44,14.98435 9.03581,12.71564 10.65566,14.75314 12.32328,15.5005 4.32384,1.9379 5.29973,2.57318 6.34512,4.13049 1.2648,1.88405 1.40798,4.2912 0.37425,6.29021 -1.88236,3.64013 -15.11313,9.99773 -27.53193,13.22967 -5.13375,1.33598 -5.64159,1.37116 -7.21459,0.49929 z M 368.18408,692.6436 c -9.78959,-0.54763 -19.5238,-2.51332 -24.80482,-5.00908 -2.28564,-1.08015 -3.50957,-2.08661 -5.3428,-4.3934 -6.01915,-7.57401 -15.42156,-25.16774 -15.78675,-29.54006 -0.2204,-2.63885 -0.009,-3.0203 2.33778,-4.22621 1.09635,-0.56328 13.04164,-12.88996 31.57779,-32.586 16.39791,-17.42399 30.14746,-31.75315 30.55456,-31.84252 1.54042,-0.33816 3.03231,0.48033 6.23763,3.42235 3.13757,2.87976 3.5097,3.07781 7.27914,3.8737 5.85684,1.23657 17.15849,5.22192 22.71353,8.00961 8.06106,4.0452 10.51394,7.28146 10.51394,13.87181 0,2.18232 0.46691,4.3356 1.73866,8.01821 1.25999,3.64852 1.67152,5.53516 1.4948,6.85272 -0.91414,6.81537 -8.18798,12.64593 -18.63824,14.9399 -2.48337,0.54514 -5.09119,1.14038 -5.79516,1.32269 l -1.27996,0.33153 1.91539,4.56 c 4.5337,10.79343 5.38978,18.53909 2.66278,24.09226 -3.85899,7.85832 -12.80283,13.58601 -25.77827,16.50854 -4.82624,1.08706 -14.48867,2.20459 -17.52,2.02632 -0.792,-0.0466 -2.628,-0.15115 -4.08,-0.23237 z m 10.6288,-25.0534 c 8.53014,-2.15731 14.74448,-5.34999 17.5353,-9.00893 1.24998,-1.63882 1.2709,-1.75195 0.43675,-2.36189 -2.65801,-1.94361 -27.29313,-8.93875 -28.61116,-8.12414 -0.24391,0.15072 -3.6029,4.28265 -7.46439,9.18201 -5.00874,6.35496 -6.87298,9.05592 -6.50473,9.42418 1.21017,1.21018 7.06622,2.21232 13.08823,2.23978 5.1571,0.0235 6.8877,-0.17948 11.52,-1.35101 z m 26.8112,-43.73405 c 5.63303,-1.15306 9.12,-2.49408 9.12,-3.50741 0,-0.37075 -0.81,-1.03224 -1.8,-1.46995 -4.08755,-1.8073 -16.14965,-4.08782 -18.50045,-3.49781 -0.5853,0.14688 -1.84462,1.30229 -2.7985,2.56747 -0.95387,1.26524 -2.67244,3.46863 -3.81903,4.89644 l -2.08472,2.59598 7.42135,-0.27653 c 4.67339,-0.17419 9.28756,-0.65856 12.46135,-1.30819 z m -107.04,16.76606 c -1.452,-0.25401 -3.96978,-1.11148 -5.59506,-1.90555 -4.86066,-2.3747 -7.27098,-7.29926 -6.21983,-12.70781 0.65436,-3.36686 0.63135,-8.2055 -0.10727,-22.56 -0.39728,-7.72089 -0.51121,-15.29663 -0.29875,-19.86619 0.28885,-6.21244 0.23834,-7.32182 -0.31783,-6.98126 -0.36369,0.22267 -4.98126,3.23712 -10.26126,6.69878 -9.1754,6.01551 -9.65139,6.40392 -10.76193,8.78103 -1.46248,3.13046 -2.55091,4.11965 -4.53302,4.11965 -2.10847,0 -4.26209,-1.62989 -6.48867,-4.91064 -3.90787,-5.75808 -8.59004,-16.7016 -9.96295,-23.2861 -0.61497,-2.94941 -0.60852,-3.43229 0.0595,-4.45176 0.47547,-0.72566 1.21128,-1.1435 2.01372,-1.1435 1.55182,0 84.86354,-44.71023 86.39907,-46.36709 1.64503,-1.77499 4.0117,-1.56835 6.36262,0.55555 1.66637,1.50547 2.15789,2.50906 4.13657,8.44613 2.69183,8.07691 3.43614,9.0491 9.7695,12.76041 8.63563,5.0604 11.67953,7.81253 13.9171,12.58311 l 1.24853,2.66189 v 13.2 13.2 l -1.27102,2.71104 c -2.3768,5.06956 -6.89417,8.32953 -14.32898,10.34044 -2.42497,0.65588 -4.99124,0.84231 -11.52,0.83684 -8.69055,-0.007 -14.32797,-0.7536 -23.02682,-3.04844 -1.97276,-0.52041 -3.68731,-0.84576 -3.81011,-0.72297 -0.32004,0.32006 0.86535,30.41841 1.37855,35.00308 0.25577,2.28485 0.99468,5.20076 1.82455,7.2 2.07716,5.0041 2.20905,5.8248 1.11231,6.92151 -0.51488,0.51489 -1.76016,1.17552 -2.76731,1.46808 -2.49662,0.72523 -13.70379,1.03181 -16.95117,0.46377 z m 47.63444,-74.44166 c 2.64514,-0.58704 4.68556,-2.02046 4.68556,-3.2916 0,-2.08925 -6.39854,-5.75525 -17.97058,-10.29605 -3.15182,-1.23676 -6.09448,-2.15347 -6.53923,-2.03716 -0.44475,0.1163 -4.1917,2.42712 -8.32655,5.13508 -8.48117,5.55452 -8.32459,5.09684 -2.53047,7.39618 8.59482,3.41074 22.79899,4.84296 30.68127,3.09355 z m 466.49577,47.80603 c -10.90704,-2.36606 -20.99933,-8.29469 -31.01203,-18.21772 -8.12765,-8.05488 -13.14235,-15.10661 -17.97019,-25.26994 -8.17023,-17.19946 -7.70083,-30.26338 1.35393,-37.68346 3.69164,-3.02515 13.04026,-8.50329 18.07464,-10.59134 3.912,-1.62254 4.69637,-1.78243 8.62344,-1.75742 3.26621,0.0206 5.3738,0.34646 8.64,1.33502 6.96692,2.10864 16.13823,5.92858 18.62506,7.75757 2.79168,2.05315 5.13494,5.57251 5.13494,7.71211 0,1.94011 -3.73118,6.73483 -9.89515,12.71549 -4.76961,4.62782 -8.3867,7.14197 -10.27517,7.14197 -1.43169,0 -2.90721,-1.43199 -3.79483,-3.68285 -1.18003,-2.99242 -14.09635,-11.67715 -17.36673,-11.67715 -1.43064,0 1.5922,9.70905 4.7075,15.12 6.81682,11.84011 20.47718,24.50875 33.50438,31.07184 8.88658,4.4771 18.29871,5.77761 19.13842,2.64446 0.45005,-1.67909 0.35165,-8.36635 -0.18902,-12.84888 -0.73263,-6.07445 -2.04332,-9.93058 -4.2985,-12.64661 -3.67584,-4.42689 -3.35438,-5.79801 2.77838,-11.85105 5.49884,-5.42736 13.01506,-11.73941 15.24548,-12.803 2.46072,-1.17345 3.61958,-0.10377 6.51993,6.01796 5.40216,11.40225 7.3681,20.11785 7.00493,31.05528 -0.32304,9.72926 -0.87173,10.9907 -7.72901,17.76888 -11.68229,11.54755 -19.16285,16.33588 -29.22797,18.709 -3.78585,0.89261 -13.43582,0.88157 -17.59243,-0.0202 z m -576.7702,-79.73294 c -6.56288,-1.4004 -11.28472,-4.38307 -14.4225,-9.11035 -2.95477,-4.45152 -4.43169,-9.9336 -5.25449,-19.50365 -0.39111,-4.54891 -0.96885,-11.07878 -1.28388,-14.51078 -0.91583,-9.97739 -0.76789,-15.81868 0.48138,-19.00552 4.78297,-12.20128 30.15245,-23.87421 66.07948,-30.40428 9.32783,-1.69542 20.88206,-3.11467 26.57501,-3.2643 5.2055,-0.13682 6.7176,0.42879 8.12813,3.04037 0.816,1.51081 0.51449,18.63166 -0.36919,20.96386 -0.90829,2.39718 -1.9634,2.73557 -8.65395,2.77545 -5.09687,0.0304 -6.86722,0.26155 -11.76147,1.53581 -28.69726,7.47157 -56.19872,18.75867 -63.51316,26.06698 -3.38931,3.38644 -3.59617,5.61686 -0.75248,8.11368 4.77428,4.19188 16.99674,3.85401 36.42711,-1.00695 17.2747,-4.32168 45.03506,-15.12157 49.69856,-19.33476 3.8254,-3.45602 8.81124,-3.13029 10.79466,0.70522 1.77817,3.4386 4.18413,19.56141 3.19492,21.40975 -0.27159,0.5075 -0.99653,1.16587 -1.61097,1.46314 -37.46805,18.12576 -53.48627,24.8315 -67.97158,28.45511 -9.55381,2.38997 -19.2861,2.99808 -25.78558,1.61122 z m 248.89057,74.02401 c 8.90773,-1.18603 19.7131,-4.58011 26.35525,-8.27836 10.52808,-5.86195 24.65347,-16.45176 40.59653,-30.43531 7.71748,-6.76896 9.61137,-8.28154 14.15764,-11.30722 7.37213,-4.90646 12.90375,-7.51714 19.90829,-9.39586 5.60707,-1.50388 14.03199,-1.48804 18.97171,0.0355 6.53799,2.01677 9.14055,3.8438 17.52,12.29904 7.1126,7.17696 16.81378,16.14864 24.98463,23.10586 3.9539,3.36662 7.72944,5.73739 13.26931,8.33213 14.63083,6.85272 27.09835,5.42333 36.86371,-4.2264 7.332,-7.24527 12.85128,-17.72971 17.02277,-32.33669 3.04128,-10.64933 4.67107,-19.86202 5.79931,-32.78174 1.05403,-12.06994 2.53915,-20.34418 7.6944,-42.86887 0.61493,-2.68688 0.9672,-3.44588 1.50375,-3.24 0.38534,0.14788 0.9274,0.26887 1.2046,0.26887 0.67085,0 0.3865,1.67938 -2.23497,13.2 -2.10149,9.23539 -4.72747,24.01536 -5.24487,29.52 l -0.24816,2.64 2.66429,-2.88 c 5.26013,-5.68599 12.18154,-17.19619 19.79002,-32.91051 7.57838,-15.65209 19.70299,-44.86063 18.92093,-45.58106 -0.21432,-0.19745 -2.98172,-2.30117 -6.14972,-4.67493 -8.10028,-6.06947 -13.91476,-11.27726 -15.83774,-14.18516 -4.21224,-6.36981 -5.5464,-14.60095 -3.20419,-19.76834 2.42405,-5.3478 7.14499,-8.385 13.64501,-8.77838 5.48356,-0.33187 8.50444,0.47583 17.47243,4.67162 l 8.08449,3.78245 0.59645,-1.97076 c 0.97147,-3.21015 2.89829,-13.1041 3.80631,-19.54493 0.66873,-4.74367 0.84912,-9.38335 0.86155,-22.15821 l 0.0158,-16.15822 1.30507,1.51822 c 1.1857,1.3793 3.25493,5.88314 3.25493,7.08455 0,0.26967 0.19224,0.37149 0.42725,0.22626 0.235,-0.14523 0.829,-1.83197 1.32,-3.74832 0.72662,-2.83597 0.89275,-5.29793 0.89275,-13.23158 v -9.7473 l 1.98672,2.10295 c 1.55145,1.64223 2.12016,2.72608 2.59593,4.9473 0.33509,1.56439 0.75917,3.01764 0.94239,3.22944 0.8148,0.94189 1.67285,-5.97832 1.62494,-13.10509 -0.14616,-21.72675 -6.81955,-45.62678 -17.13389,-61.36296 -6.61531,-10.09265 -16.83254,-20.39379 -23.84764,-24.04345 -6.92247,-3.60148 -16.91372,-5.79118 -26.40845,-5.78772 -21.86976,0.008 -39.13771,6.88873 -53.52509,21.32817 -6.3251,6.34798 -9.9971,11.27243 -15.43522,20.69992 -6.44121,11.16649 -11.33016,16.45622 -18.55521,20.07647 -4.54637,2.27804 -8.66535,3.25823 -14.04125,3.34137 l -4.4089,0.0682 -0.81892,3.80535 c -4.95792,23.03778 -20.44373,38.22549 -43.21541,42.38344 -6.49133,1.18527 -17.29579,1.05999 -24.12619,-0.27974 -12.60936,-2.47326 -22.3608,-7.37078 -29.37192,-14.75169 -7.01242,-7.38225 -9.23223,-15.87661 -6.36696,-24.36388 l 0.8711,-2.58028 -4.58299,-0.28713 c -8.40783,-0.52676 -16.51402,-3.40963 -22.89216,-8.14134 -2.71448,-2.01376 -3.15972,-2.62053 -5.5961,-7.62628 -3.88299,-7.97795 -14.09799,-21.17716 -21.34135,-27.57601 l -3.06648,-2.70896 -1.43546,1.06128 -1.43547,1.06128 0.77161,-1.49211 c 0.42438,-0.82067 0.64382,-1.69888 0.48764,-1.95158 -0.62754,-1.01537 -11.30712,-7.74942 -15.12241,-9.53549 -11.00261,-5.1507 -24.66604,-7.7976 -36.24585,-7.0216 l -4.81298,0.32254 1.58872,3.2011 c 0.8738,1.76061 1.92971,4.93227 2.34645,7.04813 l 0.75772,3.84703 -2.00258,10.18218 c -1.10142,5.6002 -2.52123,12.06729 -3.15512,14.37131 -0.6339,2.30402 -1.06774,4.27393 -0.96409,4.37758 0.10364,0.10365 3.36119,-0.0779 7.23897,-0.40341 8.55814,-0.71843 23.6336,-0.36385 29.7359,0.69939 4.2036,0.73242 9.27379,1.95269 9.6416,2.32049 0.10026,0.10026 -0.76112,2.32792 -1.91418,4.95035 -4.68557,10.65645 -9.46438,28.16398 -12.75456,46.72719 -0.53412,3.01353 -1.07412,5.58213 -1.19999,5.708 -0.44572,0.44582 -2.21182,-2.11618 -4.07219,-5.90689 -1.70877,-3.48182 -5.30083,-14.21532 -5.30083,-15.83955 0,-3.17053 -2.94749,3.1843 -6.56748,14.15955 -3.92715,11.90656 -7.33195,28.39743 -9.06797,43.92 -1.04245,9.32106 -1.43846,34.72745 -0.71493,45.86702 2.06993,31.86873 9.1545,63.1243 20.20584,89.14378 1.24097,2.92176 2.22937,4.68197 2.42584,4.32 0.18235,-0.33595 0.49006,-1.7988 0.68379,-3.2508 1.04806,-7.85511 4.67611,-19.4881 8.42283,-27.00697 4.07364,-8.17494 6.89949,-11.39303 10.00438,-11.39303 1.36855,0 1.65038,0.24571 2.50953,2.18797 l 0.96784,2.18797 3.39635,-4.94797 c 5.77521,-8.41361 13.28046,-17.02002 18.75612,-21.50797 l 2.63536,-2.16 0.33772,-3.84 c 0.41019,-4.66401 1.31722,-9.15904 2.58518,-12.81142 l 0.94823,-2.73142 -2.19239,-1.7965 c -4.41383,-3.6168 -11.2223,-15.94163 -14.78084,-26.75657 -2.44563,-7.43264 -4.27666,-16.42279 -5.0622,-24.85479 l -0.56556,-6.07071 2.01594,-6.04929 c 1.10876,-3.32712 2.09075,-6.0493 2.18219,-6.0493 0.0914,0 1.42355,1.32895 2.96025,2.95323 6.18382,6.53627 15.06366,11.79321 23.94825,14.17754 4.30738,1.15596 5.59671,1.28088 13.40573,1.29887 7.1282,0.0164 9.43887,-0.15942 13.20557,-1.005 11.45319,-2.5711 24.40565,-7.57802 44.92959,-17.36804 5.04633,-2.40713 9.5986,-4.3766 10.11614,-4.3766 0.51754,0 3.11333,0.6499 5.7684,1.44422 11.5885,3.46693 23.02142,8.48757 31.58678,13.871 10.82909,6.8062 20.47392,9.49532 32.49692,9.06055 5.53953,-0.20031 6.97521,-0.43236 10.9366,-1.7677 8.04341,-2.71134 14.56872,-7.30792 19.83696,-13.9736 1.6297,-2.06194 3.61104,-5.05507 4.40304,-6.65138 0.792,-1.59631 1.56216,-2.91155 1.71149,-2.92274 0.38463,-0.0288 2.37677,13.69098 2.37226,16.33783 -0.007,4.05542 -3.05645,13.6562 -7.3093,23.01159 -7.86341,17.29796 -16.58217,29.36275 -25.49683,35.28174 -2.25514,1.49734 -3.33403,1.89182 -5.62776,2.05773 -2.67374,0.1934 -2.91806,0.11925 -4.22808,-1.28312 -0.86323,-0.92406 -1.70875,-2.66463 -2.23013,-4.59071 -0.80726,-2.98228 -0.79977,-3.80444 0.1933,-21.24886 0.56817,-9.9806 1.02902,-18.81787 1.02408,-19.63838 l -0.009,-1.49184 -4.37784,-0.59825 c -2.40778,-0.32904 -4.99013,-0.77387 -5.7385,-0.9885 l -1.36075,-0.39025 -1.36133,4.40033 -1.36128,4.40034 4.17533,4.66492 c 7.23725,8.08566 7.62446,8.63834 7.62446,10.88172 v 2.00777 l -6.12,-7.06373 c -3.366,-3.88504 -6.336,-7.11852 -6.6,-7.18549 -0.264,-0.067 -1.278,1.53796 -2.25331,3.56652 -4.19611,8.72754 -12.38515,15.56778 -16.16073,13.49892 -2.56656,-1.40637 -3.40138,-4.2608 -4.65125,-15.9037 -1.81973,-16.95101 -1.71216,-16.3665 -3.138,-17.04989 -1.69152,-0.81072 -11.71047,-3.27633 -17.00703,-4.18534 -6.26313,-1.07488 -15.78283,-1.7781 -19.66968,-1.45298 -5.15265,0.43099 -10.47009,1.23219 -11.37432,1.71382 -1.25467,0.66832 -6.73075,18.77268 -8.83344,29.20438 -0.66772,3.31269 -1.5359,6.51939 -1.92926,7.126 -1.9176,2.95737 -6.32923,3.80519 -10.15733,1.95204 -3.91339,-1.89445 -10.58649,-11.7856 -12.18081,-18.05496 -0.28536,-1.122 -0.73292,-2.04 -0.99461,-2.04 -0.74717,0 -5.66698,2.7471 -8.06314,4.50226 l -2.17291,1.59162 -2.32848,12.19306 c -2.55091,13.35798 -3.44539,15.99033 -6.60269,19.43145 -2.70845,2.95192 -5.54618,4.24311 -8.38858,3.81686 -2.06546,-0.30973 -2.13418,-0.27733 -2.80204,1.32105 -0.90762,2.17227 -2.74014,11.23782 -2.55694,12.64938 0.13909,1.07172 0.28076,1.02202 3.74455,-1.31356 20.00698,-13.4904 43.07012,-15.78734 65.10514,-6.48404 5.30918,2.24158 13.44523,6.70512 17.03813,9.34736 1.96185,1.44277 2.01177,1.45202 3.72264,0.68984 3.95885,-1.76369 15.52032,-5.45793 20.21409,-6.45903 6.88575,-1.46861 20.82408,-1.58818 26.64,-0.22854 8.75573,2.04689 15.20794,4.91122 22.90464,10.16806 l 4.45536,3.04301 0.15879,-1.52675 c 0.20774,-1.99711 -0.71074,-11.44544 -1.63675,-16.83762 -0.402,-2.34058 -0.66586,-4.31174 -0.58647,-4.38037 0.74237,-0.64146 2.23325,-0.6419 2.4793,-9.6e-4 0.58008,1.51171 2.1852,14.07234 2.51213,19.65817 l 0.336,5.74149 5.15505,4.93978 c 2.83531,2.71688 7.90738,8.07121 11.27127,11.89852 3.36388,3.82729 6.24993,6.95757 6.41342,6.95615 0.16349,-10e-4 1.23197,-4.05141 2.37442,-9 2.94513,-12.75701 3.72292,-15.21632 5.42592,-17.15595 2.9351,-3.34288 5.74622,-1.90658 10.13184,5.17675 3.33033,5.37883 4.40846,9.43337 6.7918,25.54177 2.45458,16.58962 3.63764,33.03456 2.95978,41.14205 -0.32597,3.89866 -0.51763,4.46386 -2.82811,8.34082 -3.03293,5.08924 -7.07184,9.57897 -10.94223,12.16353 -9.51331,6.35275 -23.41219,4.93459 -36.25968,-3.69974 -6.65577,-4.47312 -18.11505,-11.24309 -24.15648,-14.27131 -26.92608,-13.4965 -49.55217,-15.57394 -75.53025,-6.93495 -11.4949,3.82267 -22.56859,9.45619 -36.30975,18.47199 -12.94075,8.49062 -21.69043,12.84628 -30.96,15.41217 -6.02586,1.668 -14.9554,2.03458 -19.68,0.80784 l -3.36,-0.8724 -0.1432,-2.73489 c -0.17809,-3.40119 1.42391,-18.72864 3.02529,-28.94511 3.3008,-21.05827 9.31562,-37.79559 17.37309,-48.3437 4.37392,-5.72594 10.7469,-10.74437 15.15015,-11.93004 4.30018,-1.15791 5.15467,0.58403 5.15467,10.50795 0,21.32958 2.3653,44.34458 6.27375,61.04579 1.38801,5.93107 1.22443,5.83431 5.23267,3.09562 2.78674,-1.90411 3.3803,-2.52749 3.16118,-3.31997 -1.83321,-6.62976 -2.38488,-10.98091 -2.40571,-18.97565 -0.0245,-9.3179 0.38616,-11.61849 3.44506,-19.31097 2.10216,-5.28634 4.53653,-8.20901 6.8375,-8.20901 2.10557,0 3.01272,1.16913 4.30829,5.55269 2.45818,8.31748 7.44408,18.68822 12.55834,26.1215 l 1.38883,2.01859 2.82662,-1.14859 c 4.45757,-1.81128 13.36795,-4.39378 19.31938,-5.59934 4.75392,-0.96303 6.87134,-1.10487 16.49409,-1.10487 12.81116,0 17.05224,0.64791 28.6164,4.37155 3.72936,1.20087 6.93956,2.00453 7.13381,1.78594 1.62547,-1.82957 6.45293,-15.87442 10.30733,-29.98776 1.41653,-5.18667 2.81866,-9.88467 3.11587,-10.44001 0.71487,-1.33575 2.63861,-1.30709 4.71634,0.0703 2.00669,1.3303 8.42333,8.91456 10.58889,12.51576 4.92701,8.19322 6.9264,15.88071 6.95055,26.72424 0.0144,6.42149 -0.90893,15.94983 -1.8648,19.24613 -0.15063,0.51936 0.62261,1.32706 2.40048,2.50747 l 2.62262,1.74135 3.35731,-10.18748 c 4.74005,-14.38324 13.4952,-45.48518 13.4952,-47.94063 0,-0.91908 -8.11137,-10.41225 -14.86392,-17.39609 -15.26467,-15.78747 -28.32489,-23.00873 -44.82628,-24.78538 -10.52578,-1.13328 -23.88701,1.36348 -37.68087,7.04125 l -4.01112,1.65103 -5.10888,-3.3222 c -9.55862,-6.21574 -19.22505,-10.36558 -28.86893,-12.39353 -5.64192,-1.18641 -17.88576,-1.18161 -23.40873,0.009 -20.73267,4.4701 -38.41274,17.77335 -53.64108,40.36188 -4.60527,6.8311 -4.39049,5.1117 -2.07189,16.58703 0.77346,3.828 2.39086,10.52069 3.59424,14.87265 2.44018,8.8249 2.4097,7.488 0.46525,20.40735 -0.67548,4.488 -1.5991,12.318 -2.05249,17.4 -0.53503,5.99697 -1.01265,9.24 -1.36085,9.24 -0.74263,0 -4.75078,-2.58677 -7.2663,-4.68946 -6.30555,-5.27078 -16.09577,-21.26842 -23.12701,-37.79054 -10.79018,-25.3549 -17.34499,-53.05131 -20.33439,-85.92 -0.81186,-8.92643 -0.81863,-36.92655 -0.011,-45.6 2.2825,-24.5137 7.57218,-46.78652 15.27407,-64.31332 l 2.10635,-4.79331 -0.54671,-6.4867 c -0.31371,-3.72212 -0.43171,-10.22321 -0.27688,-15.25399 l 0.26982,-8.76731 -4.64618,0.27531 c -2.5554,0.15142 -6.89769,0.47871 -9.64955,0.72731 -2.75184,0.24884 -5.26793,0.45224 -5.59129,0.45224 -0.32337,0 -1.18373,1.674 -1.91192,3.72 -3.8424,10.79598 -9.5688,20.53541 -15.57572,26.49109 -4.0149,3.98065 -7.41596,6.21345 -12.36175,8.11549 -2.93837,1.13003 -3.87599,1.24571 -10.19595,1.25789 -6.63223,0.0128 -7.16259,-0.059 -11.26202,-1.5235 -2.3661,-0.84531 -4.36111,-1.47783 -4.43333,-1.4056 -0.40483,0.40483 -2.07927,12.09081 -2.57699,17.98493 -0.82035,9.71475 -0.3254,31.85719 0.96207,43.03971 4.37478,37.99788 14.86491,74.86372 30.73129,108 8.29345,17.32056 18.83421,33.55934 29.68452,45.73118 1.71167,1.92014 3.2052,3.39806 3.31896,3.2843 0.11377,-0.11376 -0.12667,-2.9808 -0.53431,-6.37113 -0.85725,-7.12997 -1.55614,-17.25605 -1.95769,-28.36435 l -0.28195,-7.8 h 1.45473 1.45472 l 2.8e-4,4.68 c 4.4e-4,7.47725 0.91063,21.74265 1.96771,30.84 2.7118,23.33812 8.22003,40.68969 17.15948,54.05428 12.43632,18.59251 31.75418,27.04339 54.80311,23.97451 z M 701.94493,518.351 c -0.10502,-11.27971 -2.29675,-31.66544 -4.73294,-44.02214 l -0.66245,-3.36 2.34,-4.88316 c 2.73826,-5.71428 3.62299,-6.45361 5.66582,-4.73467 2.26272,1.90394 4.37938,9.82305 6.78783,25.39507 0.52545,3.39751 1.02965,6.25149 1.12041,6.34226 0.0907,0.0908 0.7477,-1.93301 1.45988,-4.49726 8.04278,-28.95832 11.89272,-64.38988 11.2247,-103.30224 -0.48734,-28.3863 -2.44685,-48.67275 -6.93154,-71.76 l -1.77153,-9.12001 -0.33835,6.48001 c -0.7178,13.74761 -2.19485,23.23314 -4.50677,28.94213 -1.40563,3.4711 -3.99034,7.02742 -5.93419,8.16501 l -1.48172,0.86713 -2.8e-4,-4.46713 c 0,-19.16817 -3.28652,-49.11384 -6.94652,-63.31699 -0.29419,-1.14168 0.0651,-1.5399 4.15239,-4.60176 13.41768,-10.05158 19.04534,-13.35342 25.62969,-15.03741 4.6465,-1.18838 12.03932,-1.26959 16.49405,-0.1812 3.13013,0.76476 11.65613,4.47585 12.16147,5.29349 0.14525,0.23502 -0.0216,0.81828 -0.37123,1.29613 -0.60081,0.82167 -0.85248,0.76448 -4.63742,-1.0537 -5.91221,-2.84006 -9.32199,-3.63354 -15.52215,-3.61214 -4.62052,0.0159 -5.80291,0.20088 -9.4667,1.48057 -4.37117,1.52677 -10.03334,4.53795 -12.78077,6.79695 l -1.60752,1.3217 1.70616,5.0136 c 1.75047,5.14385 3.13872,10.9065 4.15651,17.25361 0.31748,1.98 1.18973,6.192 1.93829,9.36 3.11611,13.18775 5.9148,32.09262 7.39018,49.92001 4.32465,52.2564 -0.60629,107.70141 -12.8064,144 -2.83877,8.44608 -7.70141,20.72741 -10.01803,25.30214 l -1.63172,3.22214 z M 691.19168,381.57861 c -2.0687,-2.35613 -6.08256,-10.81283 -6.68952,-14.09409 -0.26409,-1.42761 -0.99585,-5.85997 -1.62619,-9.84969 l -1.14605,-7.25402 1.23941,-4.02598 c 1.10866,-3.60121 1.24119,-4.83624 1.25607,-11.70597 0.0154,-7.20042 -0.0674,-7.91979 -1.32768,-11.52 -1.76016,-5.02806 -3.67215,-8.30523 -6.84485,-11.73213 -1.42383,-1.5379 -2.58879,-2.94527 -2.58879,-3.12749 0,-0.59817 6.60053,-10.015 9.90495,-14.13114 3.80803,-4.74348 12.0084,-13.33589 12.37632,-12.96799 0.99816,0.99815 4.11369,19.75586 5.29493,31.87875 2.87577,29.51482 2.06107,51.11949 -2.39861,63.60747 -2.43706,6.82434 -4.55271,8.22214 -7.44999,4.92228 z m -245.54562,-2.71704 c -4.98047,-2.24168 -9.30198,-15.59088 -9.30198,-28.73398 0,-14.31163 8.15258,-49.2385 14.80851,-63.44189 l 1.93339,-4.12574 2.54905,0.9961 c 6.11875,2.39103 11.64814,6.03421 16.30021,10.73979 l 2.71116,2.74235 1.96731,-1.00365 c 1.08201,-0.552 2.93999,-1.13696 4.12884,-1.29991 2.08686,-0.28604 2.16153,-0.25288 2.16153,0.95982 0,0.98027 -0.28986,1.31953 -1.32,1.54493 -4.37412,0.9571 -8.24611,3.56942 -13.56085,9.1491 -5.91972,6.21484 -9.1194,11.88129 -10.84152,19.19974 -1.08292,4.60206 -0.70578,13.54236 0.76694,18.18063 1.00121,3.15326 3.74434,8.96651 5.58322,11.83197 0.79354,1.23654 0.7513,1.4705 -1.51678,8.4 -2.61231,7.98126 -4.068,10.25645 -8.50098,13.28684 -2.93498,2.00635 -5.68505,2.55646 -7.86805,1.5739 z m 128.21802,226.75348 c 24.43844,-1.15191 44.58188,-5.67211 65.94116,-14.79715 l 7.38115,-3.15336 -1.38115,-1.16256 c -7.13472,-6.00543 -17.71522,-15.75072 -24.66653,-22.71936 -7.1545,-7.17236 -8.97288,-8.73207 -11.89819,-10.20519 -14.4926,-7.2984 -33.16047,-1.85856 -52.65644,15.34411 -14.12476,12.4633 -26.6255,22.34204 -36.15024,28.56773 -3.65016,2.38589 -4.72171,3.30187 -4.08,3.48768 1.76036,0.50981 16.43434,2.70206 23.15996,3.46008 3.81134,0.42955 10.50734,0.94378 14.88,1.14269 4.37265,0.19896 8.38228,0.39009 8.91028,0.42475 0.528,0.0346 5.28,-0.14054 10.56,-0.38942 z M 923.69497,497.36886 c 1.4557,-5.808 3.4028,-14.34 4.3269,-18.96 2.5839,-12.91853 2.5626,-11.50694 0.2019,-13.40425 -5.8045,-4.66511 -12.2283,-14.46434 -17.25055,-26.31533 -1.27003,-2.99683 -2.30914,-5.76189 -2.30914,-6.14459 0,-0.59059 1.96013,-0.69583 12.95999,-0.69583 7.128,0 12.9619,-0.162 12.9642,-0.36 0,-0.198 0.2096,-3.276 0.4606,-6.84 0.5434,-7.71338 0.9533,-29.17795 0.6422,-33.61894 l -0.2199,-3.13894 -4.6436,-0.55545 c -11.8188,-1.41374 -35.60349,-9.57822 -35.60349,-12.22148 0,-3.69822 6.51634,-10.48576 15.11482,-15.74388 3.79847,-2.32278 14.90317,-7.91482 19.14007,-9.63838 l 2.8149,-1.1451 -0.3133,-3.12891 c -0.4498,-4.49136 -2.4493,-16.12132 -4.4088,-25.64288 -2.7964,-13.5881 -8.9967,-36.72738 -10.1043,-37.70865 -0.2218,-0.19656 -16.71139,-2.3473 -36.64339,-4.77941 -33.36513,-4.07125 -36.67708,-4.55663 -41.75006,-6.11867 -6.15955,-1.8966 -9.64555,-3.52424 -14.14339,-6.60356 -3.83103,-2.62282 -9.13733,-4.6796 -15.62655,-6.05699 -2.772,-0.58838 -5.148,-1.22262 -5.28,-1.40942 -0.92088,-1.30318 -24.96,-5.28161 -24.96,-4.13083 0,0.17736 0.82743,1.44725 1.83869,2.82198 6.13315,8.33748 11.55403,20.06878 14.94437,32.34115 2.43269,8.80567 3.78864,17.32055 5.07667,31.87871 l 0.2796,3.16034 3.44669,-0.65172 c 10.40208,-1.9669 27.57667,-3.99303 42.57398,-5.02258 9.14943,-0.6281 46.26284,-0.86321 46.82957,-0.29667 0.19243,0.19234 -1.61275,5.16034 -4.01155,11.04 -2.39875,5.87965 -4.90176,12.14113 -5.56219,13.91439 -4.67367,12.5483 -11.63098,20.70266 -22.1737,25.9888 -4.40457,2.20846 -10.82333,4.05197 -15.46819,4.44258 -6.35736,0.53462 -9.85502,2.26188 -14.38387,7.10324 -2.80594,2.99953 -4.10847,4.98955 -8.79984,13.44423 -2.55303,4.60098 -8.55691,11.12576 -12.35578,13.42774 -4.72185,2.86129 -8.22753,3.79143 -14.23445,3.77671 -7.06401,-0.0173 -10.44734,-1.07543 -24.86529,-7.77644 -12.70771,-5.90613 -15.72903,-6.75694 -20.71901,-5.8345 -3.75082,0.69338 -5.74262,1.74598 -7.86384,4.15581 -5.46427,6.20775 -3.20371,17.0215 5.17757,24.76796 7.69253,7.10983 22.68609,17.70857 27.71141,19.58878 11.83464,4.4279 21.26313,2.56545 30.90696,-6.10516 1.33526,-1.20054 4.40246,-4.79753 6.8159,-7.99333 7.64755,-10.12642 19.14802,-20.70346 26.3664,-24.24927 13.84334,-6.80013 25.69834,-0.38873 35.42534,19.15874 1.11663,2.244 5.3834,10.30202 9.48164,17.90671 5.26161,9.76334 7.64409,13.74832 8.10715,13.56 0.36067,-0.14669 0.96139,-0.39076 1.33493,-0.54238 0.89894,-0.36491 4.34798,2.78291 5.78035,5.27552 1.76299,3.068 1.95317,4.79799 0.74275,6.75648 -0.56899,0.92065 -0.96427,2.0053 -0.8784,2.41032 0.30379,1.43285 19.84083,37.11184 20.14823,36.79504 0.1716,-0.17692 1.503,-5.07369 2.9588,-10.88169 z m 7.7906,-38.46951 c 0.9367,-5.83418 2.6137,-20.17266 2.6164,-22.37049 v -1.8 h -10.8 c -8.3202,0 -10.79995,0.13776 -10.79966,0.6 0,1.2709 6.45156,13.78 9.36406,18.15837 2.8761,4.32363 8.214,10.38318 8.7099,9.88733 0.1236,-0.1236 0.5318,-2.13744 0.9071,-4.47521 z M 245.90332,426.54383 c 2.68126,-0.74462 3.43065,-2.52721 3.10691,-7.39045 -0.14149,-2.12549 -0.77429,-5.48452 -1.40623,-7.46452 l -1.14896,-3.6 -1.89548,0.11187 c -9.77731,0.57704 -25.44525,1.63361 -27.51429,1.85543 l -2.57883,0.27648 2.09883,2.14004 c 3.53454,3.60394 12.36758,9.26982 18.65882,11.96855 2.46259,1.05636 6.32229,2.20209 8.63999,2.56472 0.132,0.0206 1.04966,-0.1873 2.03924,-0.46212 z m 557.3808,-19.42994 c 8.07859,-2.1042 15.16046,-8.92548 20.66544,-19.90503 3.85819,-7.69499 10.15128,-13.99016 16.07486,-16.08011 1.16563,-0.41126 4.10222,-0.95336 6.52574,-1.20467 4.73328,-0.49081 10.95855,-2.24859 14.83392,-4.18853 8.71272,-4.36144 16.06248,-12.7062 19.76468,-22.44041 0.70416,-1.85145 3.0792,-7.78833 5.27784,-13.19306 2.19859,-5.40473 3.99748,-10.02261 3.99748,-10.26198 0,-0.56813 -38.53204,-0.0675 -46.8,0.60802 -14.04696,1.14775 -25.94928,2.59269 -36.59155,4.44222 l -5.87155,1.02042 -0.25733,1.72905 c -1.01865,6.84453 -2.79153,11.83307 -5.22038,14.68905 l -1.22467,1.44 -0.0173,-1.56 c -0.01,-0.858 -0.23328,-1.56 -0.49728,-1.56 -0.264,0 -0.48,0.82945 -0.48,1.84322 0,2.41457 -1.67247,8.89916 -2.92608,11.34537 -0.54442,1.06228 -1.57935,2.68741 -2.29988,3.61141 -1.27296,1.63247 -1.32585,1.95162 -1.86969,11.28 -0.71784,12.31291 -2.54429,24.33487 -5.18223,34.11056 -0.23011,0.85275 0.18802,1.17222 3.00528,2.29623 6.59549,2.6314 13.74212,3.37188 19.09263,1.97824 z M 510.79036,389.60921 c 2.21856,-1.31981 4.20897,-2.39981 4.42315,-2.4 0.35405,-3.2e-4 0.22085,-1.88612 -0.43229,-6.12035 -0.23232,-1.50617 -0.31858,-1.55974 -2.49888,-1.55265 -1.24205,0.004 -2.52413,0.17625 -2.84909,0.38267 -0.32496,0.20643 -1.02523,2.52512 -1.55616,5.15265 -0.53088,2.62753 -1.07913,5.26333 -1.21829,5.85733 -0.13915,0.594 -0.17404,1.08 -0.0776,1.08 0.0965,0 1.9906,-1.07984 4.20912,-2.39965 z M 199.21443,378.97223 c 1.6886,-5.55933 4.34743,-6.52608 9.3602,-3.40337 l 2.88946,1.8 7.32094,0.24 c 4.02651,0.132 7.32051,0.14901 7.32,0.0378 -4.8e-4,-0.11121 -0.29596,-0.54321 -0.65656,-0.96 -0.80893,-0.935 -3.76,-11.32669 -5.33132,-18.77334 -3.15216,-14.93841 -2.7064,-23.96265 1.31363,-26.59351 1.19548,-0.78237 10.74688,-2.63018 20.2733,-3.92207 4.42695,-0.60034 9.93585,-0.87223 18.96,-0.93579 12.00748,-0.0846 12.98888,-0.15974 17.52,-1.34214 12.2872,-3.20633 20.8581,-10.13007 24.33112,-19.65517 l 1.04492,-2.86579 5.01777,0.3244 c 13.96442,0.90282 26.4442,4.55481 36.70659,10.74154 5.87582,3.54226 8.61525,4.70376 13.36281,5.66574 11.05115,2.23925 21.76656,-2.10102 29.63618,-12.00412 5.54978,-6.9838 9.97123,-16.08456 13.51988,-27.82818 2.64691,-8.75944 6.22073,-25.66815 6.22073,-29.4319 0,-4.90146 -3.54868,-12.31555 -7.76164,-16.21601 -6.22218,-5.76064 -12.77267,-5.23148 -19.73806,1.59449 -3.82688,3.75029 -6.77475,8.19155 -11.04741,16.64407 -5.84696,11.56693 -11.67385,19.65086 -17.86022,24.7784 -3.01993,2.50307 -7.64245,5.0237 -10.07267,5.49257 -1.36963,0.26424 -1.48144,0.16047 -2.28804,-2.12365 -1.71566,-4.85836 -6.28554,-9.21928 -11.79139,-11.25223 -2.17086,-0.80156 -4.03312,-1.02988 -9.2165,-1.13 -6.01299,-0.11613 -7.09959,-0.28934 -14.61532,-2.32982 -13.34371,-3.62273 -28.35221,-7.36656 -35.51662,-8.8595 -7.87851,-1.64175 -15.57539,-3.7961 -26.89213,-7.52709 -10.20695,-3.3651 -14.24018,-4.95303 -19.58069,-7.70909 -2.32139,-1.198 -4.28989,-2.09749 -4.37444,-1.99888 -0.0846,0.0986 -1.57155,3.52729 -3.30444,7.61929 -5.5292,13.05655 -10.66819,27.32972 -14.69818,40.82311 -4.51307,15.11086 -4.34374,13.96995 -5.09029,34.29689 -0.58144,15.83133 -1.93709,28.39025 -3.90704,36.19531 -1.1105,4.39989 -1.22715,5.60137 -0.97865,10.08 0.46173,8.32164 2.36698,14.2278 6.0366,18.71318 l 1.72503,2.10848 0.59215,-3.53661 c 0.32568,-1.94514 1.03231,-4.98578 1.5703,-6.75699 z m 736.12034,0.67663 c -0.4131,-7.18277 -2.1426,-26.50413 -2.4675,-27.56661 -0.2134,-0.69784 -0.972,-0.48398 -5.6249,1.5857 -13.85518,6.16295 -23.52968,12.56339 -27.77144,18.37293 -0.75177,1.02961 -1.36685,2.03208 -1.36685,2.2277 0,0.57042 11.25706,5.03518 17.33869,6.87685 5.9394,1.79861 11.1883,2.9671 16.2613,3.6201 1.716,0.22088 3.3079,0.42899 3.5376,0.46247 0.2321,0.0338 0.2735,-2.44298 0.093,-5.57914 z m -336.97485,-8.64 c -1.16745,-6.34894 -1.07673,-6.17288 -3.76444,-7.30795 -4.4606,-1.8838 -10.06676,-3.88784 -15.38592,-5.5 l -5.21453,-1.58046 -9.18547,4.38722 c -5.052,2.41297 -10.31948,4.87336 -11.70548,5.46754 -1.48099,0.63491 -2.52,1.38503 -2.52,1.81934 0,0.48354 0.2904,0.64851 0.84,0.47722 3.91056,-1.21869 15.80818,-1.60097 23.4,-0.75186 5.02076,0.56155 14.94317,2.50849 19.44,3.81445 4.45848,1.29482 4.48479,1.28952 4.09584,-0.8255 z m -16.42022,-31.5404 c 4.35739,-0.98408 9.88406,-2.86254 12.95184,-4.40221 14.13715,-7.09522 23.62186,-20.46294 26.74699,-37.6972 0.46359,-2.5565 0.40767,-2.94631 -0.75057,-5.23202 -0.68832,-1.35834 -2.18362,-3.37563 -3.32285,-4.48285 -10.76203,-10.45947 -39.71064,-10.88334 -68.42112,-1.00183 -6.80674,2.34272 -16.77831,7.3187 -20.87731,10.41813 -2.86109,2.16337 -3.53429,2.96445 -4.55372,5.41853 -1.64884,3.96938 -1.70332,11.16461 -0.11448,15.11985 4.23231,10.53581 18.67095,19.64296 35.3856,22.31944 5.40543,0.86557 18.22388,0.60879 22.95562,-0.45984 z m -55.1916,-44.58982 c 6.59414,-4.73108 15.26453,-8.87416 24.84125,-11.87017 4.69373,-1.46841 5.13811,-1.72085 7.37342,-4.18875 2.32695,-2.56904 5.30391,-4.38194 7.22131,-4.39765 1.69786,-0.0139 4.39781,0.92764 6.23482,2.17424 1.75402,1.19033 1.87512,1.20408 6.27792,0.71314 5.69443,-0.63496 14.70206,-0.64234 19.69618,-0.0161 12.58339,1.57783 21.16262,6.30834 25.01304,13.79199 l 1.33804,2.60065 2.92685,-0.17664 c 6.79229,-0.40994 14.84179,-6.74621 18.77679,-14.78047 2.71353,-5.54029 3.51595,-8.81413 3.83126,-15.63154 0.52128,-11.26956 -2.74406,-20.52479 -9.45643,-26.80346 l -2.38536,-2.2312 -2.04653,1.03444 c -1.12565,0.56894 -6.90658,3.89657 -12.84658,7.39474 -12.82862,7.55499 -20.12323,11.4386 -26.64,14.18294 -2.64,1.11176 -4.84387,2.0546 -4.89748,2.09522 -0.0536,0.0406 0.23769,1.21721 0.64732,2.61466 2.07826,7.08956 -4.09944,13.65155 -9.43708,10.0242 -2.20368,-1.49756 -3.55848,-4.32125 -3.55848,-7.41674 v -2.5217 l -1.93714,0.34922 c -1.06541,0.19207 -6.52718,0.34923 -12.13718,0.34923 -5.61005,0 -10.20005,0.0208 -10.2,0.0463 0,0.0254 0.37804,0.78144 0.84004,1.68 1.24436,2.42015 1.1184,6.92163 -0.25584,9.14521 -2.82744,4.5749 -7.55328,4.67211 -10.87449,0.22367 -0.80227,-1.07455 -0.98967,-2.03663 -0.98967,-5.08098 0,-3.5167 0.0989,-3.87853 1.55597,-5.69161 l 1.55592,-1.93617 -2.75592,-0.56306 c -4.53888,-0.92732 -11.12505,-3.15336 -25.75401,-8.70449 -7.63292,-2.89641 -15.26813,-5.62904 -16.96714,-6.07251 l -3.08904,-0.80632 -1.58093,1.88112 c -3.72067,4.42715 -6.0092,11.15351 -5.99775,17.62817 0.0227,12.82738 7.61833,24.33698 20.69348,31.35674 3.75782,2.01748 4.25966,2.15845 7.71024,2.16595 l 3.69086,0.008 3.58234,-2.57022 z m -21.28402,9.6e-4 c 0,-0.0931 -1.31611,-1.20317 -2.92464,-2.46693 -7.85875,-6.17418 -13.42359,-16.51941 -14.18009,-26.3613 -0.59193,-7.70078 2.46852,-16.95669 7.34801,-22.22297 l 2.31672,-2.50039 4.56,1.35513 c 2.508,0.74532 9.96,3.41261 16.56,5.92733 25.37506,9.66833 32.86148,11.27309 50.29906,10.78192 9.57998,-0.26984 15.0299,-1.16632 22.79986,-3.75043 4.71278,-1.56736 18.09729,-8.44463 28.90108,-14.85003 10.64021,-6.30843 16.67386,-9.58051 17.66909,-9.58212 0.34599,-4.8e-4 2.31039,1.68029 4.36536,3.73523 4.26768,4.26772 7.01055,9.18281 8.76336,15.70375 1.46923,5.46599 1.47019,15.64744 0,21.12 -1.61357,6.0142 -4.80941,12.00876 -8.56449,16.06461 l -3.23981,3.49927 2.14229,-1.08996 c 3.69897,-1.88197 7.65888,-5.27262 10.806,-9.25262 4.81622,-6.0908 5.76552,-8.25174 6.65332,-15.14533 2.17656,-16.90041 -0.18993,-27.61625 -7.68489,-34.79816 -2.06544,-1.97914 -2.20123,-2.23568 -1.36306,-2.57485 0.51202,-0.20718 3.88234,-0.3781 7.48963,-0.37983 3.6073,-0.002 6.5233,-0.034 6.48,-0.0717 -0.0432,-0.0377 -2.45472,-1.05536 -5.35872,-2.2614 -2.904,-1.20604 -4.956,-2.19814 -4.56,-2.20467 0.396,-0.007 4.3813,0.40979 8.85624,0.92516 4.47495,0.51537 8.21218,0.8611 8.30501,0.76829 0.61603,-0.61606 -8.58921,-4.62676 -13.38317,-5.83101 -4.80278,-1.20646 -17.66486,-1.4601 -24.41808,-0.48152 -12.19881,1.76767 -27.59952,6.42814 -38.07355,11.52157 -11.42525,5.55601 -18.89261,7.21069 -32.24645,7.14544 -12.75926,-0.0623 -20.88806,-1.56579 -38.52979,-7.12623 -12.37862,-3.90157 -16.7567,-4.72585 -25.07021,-4.72004 -7.8713,0.005 -12.29059,0.84973 -19.35072,3.69661 -3.24785,1.30964 -13.29344,6.73169 -13.28798,7.17211 4.8e-4,0.0574 1.67471,0.11499 3.72,0.12804 3.29438,0.021 4.07137,0.21219 6.80949,1.67526 l 3.09077,1.65153 -2.37077,0.52823 c -3.17339,0.70705 -4.88267,1.66191 -7.13002,3.98306 l -1.87924,1.94095 3.8834,-1.67896 c 2.13586,-0.92342 5.35752,-1.9913 7.15923,-2.37305 3.34035,-0.70729 6.87776,-0.93172 6.87776,-0.43617 0,0.15099 -0.53899,1.19425 -1.19776,2.31836 -3.10837,5.30402 -4.34412,12.71498 -3.57728,21.45347 0.44396,5.05918 0.51661,5.29483 2.38825,7.74579 1.06171,1.39032 3.32667,5.26169 5.03325,8.60305 2.67559,5.23865 3.43063,6.31582 5.48321,7.82255 3.50193,2.57063 9.63033,5.68441 9.63033,4.89306 z m 61.08,-15.72619 c 3.53045,-0.64349 4.0549,-1.12936 1.76247,-1.63286 -2.11066,-0.46358 -4.29893,0.0916 -5.96247,1.51273 -1.41393,1.20789 -1.4183,1.22545 -0.24,0.97042 0.66,-0.14285 2.658,-0.52548 4.44,-0.85029 z m 350.27999,-0.14048 c 0,-1.37308 -8.61474,-24.00432 -13.0809,-34.36407 C 885.0513,201.2912 858.49069,161.80451 825.15872,127.82016 771.21368,72.819349 703.85053,36.417719 629.30408,21.984469 c -42.23616,-8.17752 -87.93657,-8.77024 -130.32,-1.69019 -69.25522,11.56891 -132.55526,41.85462 -186.21676,89.094841 l -1.89677,1.66979 3.75642,0.3404 c 4.81222,0.43607 12.8891,1.90626 15.51711,2.82449 l 2.04,0.71278 v -4.00023 c 0,-2.20013 0.23556,-5.09858 0.52346,-6.44101 l 0.52345,-2.44077 4.6583,4.47115 c 15.17216,14.5626 35.5639,30.84705 49.76898,39.74455 6.53787,4.09507 19.06193,10.66749 18.09297,9.4949 -0.32606,-0.39459 -1.35118,-1.12582 -2.27804,-1.62496 -1.32357,-0.71279 -1.62132,-1.1161 -1.38752,-1.87944 0.16371,-0.53455 0.37737,-1.06045 0.47479,-1.16867 0.25641,-0.28482 13.46085,3.80865 27.08233,8.39571 12.04437,4.05596 22.21769,7.9312 26.44594,10.07381 l 2.37278,1.20239 -1.01282,-1.98529 c -1.43178,-2.80654 -4.51135,-6.00067 -8.12679,-8.42912 l -3.10218,-2.0837 3.34218,0.28788 c 3.03326,0.26128 8.67723,1.16402 11.74217,1.87814 1.11232,0.25916 1.34695,-0.0296 3.21098,-3.95173 2.55423,-5.37438 5.22667,-9.40781 8.30621,-12.53631 2.38175,-2.41961 6.72281,-5.72051 6.72281,-5.11195 0,0.17005 -0.36496,1.53042 -0.81104,3.02306 -1.11261,3.72294 -1.11562,12.65918 -0.006,16.87387 2.64358,10.03841 9.86808,18.43602 20.41609,23.73122 l 2.55932,1.28482 2.48068,-1.92319 c 13.00738,-10.08433 25.72796,-31.19246 32.86354,-54.53285 1.04923,-3.432 2.1827,-7.482 2.5188,-9 0.3361,-1.518 0.78091,-2.76 0.98846,-2.76 0.62069,0 3.71938,6.74372 4.52146,9.84 0.4103,1.584 0.87638,4.64441 1.03574,6.8009 l 0.28973,3.92089 3.89146,-3.45838 c 8.35483,-7.42506 16.2516,-12.86374 24.53145,-16.89539 10.15234,-4.94342 17.73821,-6.70544 27.12,-6.29935 3.3,0.14284 7.296,0.61325 8.88,1.04536 4.13818,1.12887 10.98212,4.55608 14.88,7.45143 l 3.36,2.49579 -2.16,-0.28568 c -1.188,-0.15712 -5.292,-0.39965 -9.12,-0.53894 -6.47476,-0.23561 -6.83409,-0.2041 -5.15414,0.45195 7.57762,2.95922 12.54077,7.10239 15.07277,12.58259 1.24569,2.69605 2.24889,4.0253 4.53955,6.01486 3.74242,3.25052 8.5524,9.24674 10.68,13.31393 2.7192,5.1981 3.71198,8.83119 4.01141,14.68004 l 0.27029,5.28 -3.68612,-3.49398 c -2.02732,-1.92169 -5.46081,-4.81415 -7.62993,-6.4277 -4.0664,-3.02489 -10.86843,-6.63832 -12.49625,-6.63832 -0.79632,0 -0.69591,0.28037 0.7307,2.04 7.03181,8.67325 11.62853,19.82139 10.7664,26.11117 -0.2869,2.09341 -0.28224,2.1016 1.02355,1.79593 7.69095,-1.8003 13.00685,-10.6568 15.67008,-26.1071 0.43234,-2.508 0.92203,-6.88993 1.08821,-9.73762 0.16622,-2.84769 0.49589,-5.29731 0.73258,-5.44361 0.71558,-0.44226 5.60587,2.77735 8.31993,5.47759 6.546,6.51262 9.84701,14.94037 10.59783,27.05692 0.23649,3.81642 0.50923,5.18938 1.17772,5.92814 0.47847,0.52877 1.47644,2.25677 2.2177,3.84 1.23197,2.63133 1.34774,3.3527 1.34774,8.39858 0,3.036 -0.17587,6.55039 -0.39086,7.80977 l -0.39091,2.28978 2.55091,-0.96829 c 3.83136,-1.45435 8.72232,-5.02245 11.77411,-8.58956 9.48999,-11.09246 16.98471,-16.59901 25.24258,-18.5462 7.62825,-1.79874 15.01977,0.19348 20.14953,5.43089 9.08088,9.27135 10.36882,24.96764 3.42514,41.74187 -0.92626,2.2375 -1.62024,4.12856 -1.54229,4.20236 0.078,0.0738 2.08579,0.49174 4.46179,0.92875 8.73504,1.60662 15.55052,4.25254 20.46432,7.94469 1.41236,1.06124 2.78568,1.83386 3.0518,1.71693 4.87992,-2.14405 9.82747,-3.94832 13.57795,-4.95165 4.11302,-1.10032 5.63289,-1.25304 12.82593,-1.28879 8.04994,-0.04 9.40119,0.12743 16.04837,1.98861 l 2.60832,0.73032 -4.76832,1.79277 c -5.22149,1.96313 -12.77208,5.62226 -14.51237,7.03287 -1.08921,0.88291 -1.009,0.89537 6,0.93139 13.02711,0.0669 22.15503,2.61834 32.29714,9.0275 l 3.12686,1.97599 -4.32,0.33675 c -2.376,0.1852 -6.2566,0.47848 -8.62363,0.65172 l -4.30358,0.31497 3.95894,1.59708 c 2.17738,0.87839 5.41003,2.63381 7.18359,3.90094 3.3802,2.41499 9.65356,5.17307 15.05932,6.62087 1.75709,0.47058 19.14509,2.85517 38.64,5.2991 19.49496,2.44392 35.60734,4.46939 35.80534,4.50103 0.198,0.0316 0.36,-0.0306 0.36,-0.13839 z m -564.70316,-6.28408 c 1.89083,-1.848 4.62155,-4.98 6.06827,-6.96 3.02908,-4.14564 7.27594,-11.03896 6.98201,-11.33288 -0.55335,-0.55336 -9.85304,8.09654 -13.79865,12.83451 -2.31939,2.78516 -7.66846,10.58495 -7.66846,11.18181 0,0.90503 5.37316,-2.74871 8.41683,-5.72344 z m -7.41864,-0.96 c 4.1401,-6.23676 14.46358,-16.87724 20.00922,-20.62363 2.88496,-1.94895 3.7216,-2.8246 4.84314,-5.06902 1.82593,-3.65399 4.52103,-7.65599 7.0505,-10.46937 l 2.08771,-2.32203 -8.93399,-11.47797 c -7.3443,-9.43562 -14.18871,-17.93898 -22.50506,-27.95988 l -1.01028,-1.21736 -1.73098,2.36963 c -7.52288,10.29853 -18.77309,32.87533 -23.55941,47.27877 -1.9026,5.7255 -5.29736,17.99633 -5.76844,20.85087 l -0.31686,1.91999 4.4767,0.0424 c 9.23176,0.0875 17.51258,4.49289 20.975,11.15867 0.32029,0.61661 0.64882,1.04861 0.73006,0.96 0.0813,-0.0886 1.72496,-2.53711 3.65269,-5.44111 z m 136.94944,-22.98243 c 0.70813,-2.08034 1.2256,-3.83693 1.14994,-3.90353 -0.84744,-0.74597 -12.47131,4.23559 -15.21361,6.51998 l -1.15604,0.96302 4.03604,3.95317 c 2.21982,2.17424 5.22404,5.32409 6.67604,6.99966 l 2.64,3.0465 0.29007,-6.89818 c 0.24058,-5.72148 0.50969,-7.5434 1.57756,-10.68062 z m 188.31466,6.78554 c 3.03149,-3.7147 9.68371,-10.13526 12.87682,-12.42837 1.98125,-1.42282 2.14699,-1.69377 1.85289,-3.02867 -1.20369,-5.46345 -0.97728,-12.02122 0.57927,-16.77546 3.4007,-10.38694 12.24077,-19.97032 23.2631,-25.21922 5.02431,-2.39259 8.83551,-3.39138 12.94099,-3.39138 5.87775,0 10.00877,2.43726 12.14679,7.16646 2.08973,4.62233 0.85512,15.08981 -2.73797,23.2145 l -1.21133,2.73904 h 2.54803 2.54804 l 1.2994,-2.89545 c 7.33234,-16.3387 6.66466,-31.70991 -1.76457,-40.62256 -3.46383,-3.66251 -6.67503,-5.10384 -11.93093,-5.35513 -3.31934,-0.1587 -4.89418,0.01 -7.47878,0.80094 -6.8126,2.0849 -14.65133,8.04739 -21.33821,16.23072 -1.57215,1.92398 -4.14951,4.4916 -5.72746,5.70582 -3.01301,2.31846 -8.65373,5.14252 -11.47003,5.74256 -0.91392,0.19472 -2.42592,0.85733 -3.36,1.47247 -2.49341,1.64204 -6.83669,2.60063 -11.78318,2.60063 -2.39972,0 -4.58592,0.22278 -4.85823,0.49508 -0.34013,0.34011 -0.42273,0.002 -0.26395,-1.07978 0.12715,-0.86617 0.51686,-1.79095 0.86602,-2.05508 0.93052,-0.70384 4.76841,-9.75637 6.63388,-15.64768 2.28855,-7.22723 2.83728,-11.27545 2.54506,-18.77595 -0.27384,-7.02764 -1.43928,-11.57504 -4.2791,-16.69659 -1.67583,-3.02228 -5.74234,-8.61023 -6.27884,-8.62804 -0.198,-0.007 -0.36129,0.90604 -0.36283,2.02804 0,1.122 -0.32803,4.19775 -0.72552,6.83499 -2.8271,18.75736 -10.29201,29.98341 -19.94923,30.00032 l -2.67754,0.005 -0.58099,-2.52 c -0.62549,-2.71317 -3.32649,-8.48842 -4.88265,-10.44 l -0.95684,-1.2 0.90903,2.18268 c 3.65587,8.77814 3.90869,19.18866 0.65217,26.85645 l -0.84864,1.99814 -2.7384,-5.5035 c -5.84424,-11.74532 -12.95078,-18.90316 -22.22692,-22.38732 -3.68655,-1.38479 -9.14909,-2.42656 -12.72312,-2.42656 h -2.82706 l 2.16643,1.99694 c 5.02743,4.63415 9.23487,11.80438 10.51397,17.91784 0.38285,1.82998 0.62131,3.40205 0.52987,3.4935 -0.0914,0.0915 -3.15998,-1.46811 -6.81902,-3.46568 -12.78749,-6.98115 -22.58563,-10.3426 -30.14712,-10.3426 -6.01882,0 -8.53762,0.9488 -12.06255,4.54382 -2.65996,2.71288 -3.04636,2.94957 -3.99033,2.44438 l -1.04515,-0.55935 1.38475,-1.91163 c 6.84629,-9.451 18.59491,-9.81364 38.12318,-1.17674 l 5.40451,2.39028 -2.64,-2.38359 c -5.90424,-5.33081 -13.94923,-10.24148 -19.92,-12.15917 -9.09417,-2.92088 -18.88108,-1.383 -26.16,4.11068 -2.4911,1.88014 -6.90076,6.4902 -8.97345,9.38132 -1.18296,1.65 -2.30655,3 -2.49691,3 -0.19037,0 -0.72212,-0.27492 -1.18162,-0.61092 -0.76824,-0.56173 -0.6457,-0.8812 1.52189,-3.96771 3.23501,-4.6065 9.33005,-10.22598 13.35715,-12.31498 5.8499,-3.03457 7.86696,-3.50895 14.81294,-3.48376 5.54813,0.0201 6.66576,0.17057 10.08,1.35689 7.53596,2.61846 14.63348,7.0957 22.14183,13.9674 3.92904,3.59592 4.05432,3.66871 3.32995,1.93513 -2.84126,-6.80015 -12.83362,-15.91122 -21.39557,-19.50855 -5.7815,-2.42914 -9.09667,-2.99317 -17.45189,-2.96921 l -7.61568,0.0218 4.73568,-2.55385 c 7.944,-4.28402 15.00168,-6.0928 23.93568,-6.13436 15.04023,-0.07 28.45671,5.55231 38.39852,16.09113 5.11968,5.42711 8.37196,10.8601 10.76616,17.98491 l 1.39689,4.15687 0.33456,-2.23093 c 0.42855,-2.85786 -0.0851,-7.62218 -1.29101,-11.97371 -1.43145,-5.16547 -4.61644,-11.37178 -10.02019,-19.52534 -4.32494,-6.52574 -4.6644,-7.18527 -3.02798,-5.883 3.01977,2.40314 13.77264,13.6155 15.53822,16.20215 0.90096,1.32 2.25115,3.48 3.00043,4.8 0.74928,1.32 1.25415,1.968 1.12191,1.44 -0.13219,-0.528 -0.48629,-1.91039 -0.78682,-3.07197 -3.12926,-12.09425 -18.39662,-28.81746 -31.23221,-34.2104 -10.03948,-4.21814 -18.91272,-3.77971 -32.02008,1.58216 -1.3607,0.55663 -1.64457,0.54735 -2.03265,-0.0664 -0.82066,-1.29799 -0.4933,-1.78271 2.53425,-3.75219 9.44362,-6.14325 20.8333,-9.12234 32.83608,-8.58863 9.59554,0.42667 16.8194,2.72707 24.39716,7.76914 4.40284,2.92954 10.52496,9.07463 13.64716,13.69829 1.15872,1.716 1.95908,2.7071 1.7785,2.20245 -1.20768,-3.37529 -7.00694,-10.33083 -13.0189,-15.61464 -4.44465,-3.90635 -15.68884,-7.85359 -25.92,-9.09917 -2.376,-0.28926 -8.64,-0.54122 -13.92,-0.55991 l -9.6,-0.034 3.84,-1.17406 c 16.99052,-5.19475 26.19797,-5.30952 36,-0.44875 3.98506,1.97615 4.18973,2.03089 2.64,0.70594 -4.60862,-3.94018 -12.34492,-6.87891 -20.24241,-7.68935 -8.76643,-0.8996 -16.61607,0.91096 -27.35199,6.30889 -3.71371,1.86722 -3.98169,1.93288 -4.57516,1.12124 -0.34676,-0.47418 -0.63044,-1.01755 -0.63044,-1.20749 0,-0.5247 8.35743,-5.68985 12.89842,-7.97163 7.27416,-3.65513 15.23054,-5.77053 22.38158,-5.9507 l 3.36,-0.0847 -3.74419,-0.47193 c -14.51971,-1.83014 -35.98056,8.03636 -53.14085,24.43124 -3.08577,2.94812 -4.53331,4.91856 -8.59569,11.70081 -2.68675,4.48564 -5.14469,8.15239 -5.46211,8.14835 -0.31743,-0.004 -0.88642,-0.20306 -1.26442,-0.44225 -0.582,-0.36832 -0.48744,-1.0862 0.61786,-4.68928 1.37601,-4.48576 2.87174,-12.1926 3.38107,-17.42112 l 0.30393,-3.12 -2.56905,6.72 c -4.86754,12.7324 -10.37333,23.05112 -17.28783,32.4 -3.82228,5.16798 -11.41617,12.99465 -14.87582,15.33183 l -2.3171,1.56533 -2.47402,-1.02817 c -3.8675,-1.60726 -9.26876,-5.17077 -12.6992,-8.37837 -6.18642,-5.78457 -10.01592,-12.90669 -11.32021,-21.0534 l -0.63356,-3.95722 -0.9194,3.84 c -0.66379,2.77238 -0.906,5.44143 -0.8712,9.6 0.0602,7.19275 1.41348,11.83784 5.01954,17.22935 2.34705,3.50913 7.9149,9.14089 10.61271,10.73452 1.52223,0.8992 1.70688,1.63031 0.63618,2.51891 -2.04494,1.69716 -12.0504,-8.28179 -15.81069,-15.76881 -3.93403,-7.83295 -4.22229,-19.2634 -0.76587,-30.3689 1.04762,-3.36604 0.66644,-3.24443 -1.96182,0.62584 -2.66552,3.92516 -5.94781,11.02406 -6.72701,14.54909 -0.98154,4.44038 -0.85504,18.40536 0.20165,22.26192 2.23427,8.15426 4.90157,12.72836 11.0206,18.899 4.2034,4.23884 4.61426,4.80777 4.08455,5.65599 -0.32394,0.51869 -0.76355,0.94308 -0.97692,0.94308 -0.21338,0 -2.48342,-2.11162 -5.04454,-4.69249 -6.36954,-6.41864 -10.39134,-13.54685 -11.74249,-20.8123 -0.28795,-1.54836 -0.69096,-2.8152 -0.89557,-2.8152 -0.20461,0 -1.28862,1.84977 -2.40891,4.1106 -1.8248,3.6826 -2.05773,4.54662 -2.2371,8.29816 -0.13679,2.86119 0.0457,5.17003 0.57609,7.28939 1.01575,4.05863 4.36612,10.85449 5.71165,11.58548 0.71142,0.38649 3.70239,0.5655 9.09974,0.54463 l 8.04,-0.0311 v 1.09006 c 0,0.59953 -0.34166,1.22116 -0.75926,1.38141 -1.52208,0.58408 -13.59554,0.2773 -17.77576,-0.45167 -13.17512,-2.29754 -21.78428,-7.68527 -29.24149,-18.29969 -4.37122,-6.22191 -9.28427,-11.15043 -12.96858,-13.00945 -5.91298,-2.98354 -11.58064,-3.92452 -16.90722,-2.80702 -4.48781,0.94153 -7.81827,2.75596 -11.13524,6.06647 -7.76235,7.74724 -9.62961,21.39326 -4.74584,34.68278 l 1.01797,2.77006 1.73771,-0.31374 c 0.95575,-0.17256 1.78299,-0.34836 1.83832,-0.39067 0.0553,-0.0423 -0.35976,-1.47165 -0.92243,-3.17632 -0.73757,-2.23457 -1.03287,-4.37179 -1.05833,-7.6594 -0.0325,-4.19575 0.0795,-4.76952 1.40242,-7.18293 3.48024,-6.34919 10.82313,-8.64446 20.08046,-6.27683 9.73805,2.49057 18.84064,9.43997 25.56102,19.51462 2.67537,4.01071 5.8897,10.48954 6.93484,13.97791 0.57729,1.9268 0.76413,2.06465 6.8874,5.08151 3.46171,1.70554 8.01654,4.33795 10.12186,5.8498 2.10531,1.51185 4.04931,2.83304 4.32,2.93598 0.27068,0.10295 1.12547,-0.94845 1.89952,-2.33644 0.77406,-1.38799 2.75206,-3.87362 4.39556,-5.52362 l 2.98818,-3 h -2.78434 c -1.53139,0 -5.33198,0.64341 -8.44575,1.42981 -3.11378,0.78639 -5.72123,1.36997 -5.79436,1.29685 -0.20191,-0.20191 9.79055,-7.67949 12.79334,-9.57353 3.6664,-2.31262 9.76973,-5.30986 13.2,-6.4823 7.42115,-2.53647 8.71505,-2.73045 18.24,-2.73449 10.26082,-0.004 13.12152,0.51723 26.16,4.76956 14.24405,4.64552 23.47272,6.44409 35.04,6.82894 13.02826,0.43344 22.51652,-1.50018 32.88,-6.70067 13.24623,-6.64706 33.45058,-12.03692 47.55375,-12.68578 14.31609,-0.65866 25.92888,2.67655 34.86681,10.01379 2.0353,1.6708 3.7093,3.15845 3.72,3.30589 0.0106,0.14744 -2.30256,0.005 -5.14056,-0.31578 -2.838,-0.32112 -5.23272,-0.51301 -5.32166,-0.42642 -0.0889,0.0866 0.3792,0.51178 1.04021,0.94489 0.98203,0.64347 4.63425,5.47816 6.31013,8.35321 0.21288,0.36519 -0.95511,-0.24748 -2.59556,-1.36147 -4.66588,-3.16854 -8.49067,-4.75389 -12.90115,-5.34745 -2.1768,-0.29295 -4.49769,-0.39713 -5.1576,-0.23151 l -1.19976,0.30113 1.43184,1.78767 c 1.99839,2.49496 4.08615,7.33554 5.11853,11.86766 0.93298,4.09579 1.23336,15.93231 0.49939,19.68 -0.36797,1.87906 -0.32299,1.84323 2.11018,-1.68 1.36737,-1.98 3.67488,-5.0566 5.12774,-6.83689 z m -119.1239,-31.36454 c -5.09597,-0.7919 -11.36223,-2.53765 -17.22135,-4.79782 -8.42433,-3.24968 -16.04112,-4.49663 -27.55704,-4.51137 l -7.32,-0.009 v -1.14402 c 0,-1.47966 0.9481,-1.72116 6.78912,-1.72943 11.15127,-0.0158 18.40536,1.27463 30.89088,5.49512 10.70213,3.61767 16.33618,4.68068 24.72,4.66406 10.2206,-0.0203 14.93559,-1.34397 28.50226,-8.00193 9.54542,-4.68448 15.74453,-7.01287 21.20074,-7.96303 3.69806,-0.64399 9.95011,-0.37324 11.81942,0.51185 1.13731,0.53851 1.22266,0.73831 0.75451,1.76584 -0.35256,0.77378 -0.77856,1.05998 -1.28241,0.86165 -2.68541,-1.05698 -6.30677,-1.22564 -10.55938,-0.49176 -5.82394,1.00505 -11.81563,3.26926 -22.35514,8.44785 -4.752,2.3349 -10.14201,4.69701 -11.97787,5.24914 -8.06347,2.42512 -17.59569,3.02196 -26.40374,1.65322 z m -0.83026,-13.40324 c -3.67017,-0.69315 -8.55451,-2.20626 -16.08912,-4.98422 -6.30307,-2.32392 -11.35896,-3.07691 -18.85901,-2.80875 -3.564,0.12743 -6.83136,0.38091 -7.26076,0.5633 -0.57826,0.24558 -0.86448,-0.002 -1.10338,-0.95366 -0.17741,-0.7069 -0.25488,-1.35298 -0.17213,-1.43573 0.0827,-0.0828 2.09127,-0.40977 4.46338,-0.7267 8.43014,-1.12633 17.30889,0.15361 26.79811,3.86318 11.4745,4.48566 21.14798,5.68936 33.02026,4.10884 10.2634,-1.36634 18.25977,-3.73167 26.12385,-7.72745 6.02415,-3.06091 13.07506,-5.43168 17.33837,-5.82979 3.00552,-0.28066 3.0323,-0.27234 3.0323,0.94288 0,1.14822 -0.22084,1.26315 -3.48,1.81063 -5.00289,0.84043 -9.89308,2.58093 -16.2,5.76591 -5.65728,2.85689 -12.03528,4.99445 -20.1336,6.74768 -6.11865,1.32464 -21.95376,1.70722 -27.47827,0.66388 z m -237.70515,52.68468 c 4.18986,-18.35799 8.91283,-31.50422 17.41767,-48.48152 4.33147,-8.64645 7.28387,-13.65941 12.93252,-21.95848 7.07197,-10.39025 8.5732,-14.36642 10.9189,-28.92 0.20438,-1.26803 0.47195,-1.56 1.42968,-1.56 1.43692,0 1.49527,0.83116 0.4681,6.66784 -1.16376,6.61283 -2.55224,11.05142 -5.09518,16.28789 l -2.4066,4.95571 2.45951,2.96428 c 5.45803,6.57818 17.90289,22.13459 23.49092,29.36428 3.26485,4.224 6.09398,7.86187 6.28696,8.08416 0.55787,0.64261 4.35999,-1.72829 4.11205,-2.56416 -0.11746,-0.396 -0.68503,-2.01515 -1.26126,-3.5981 -2.54369,-6.98772 -3.13677,-16.39292 -1.44969,-22.98935 2.53381,-9.90711 9.52723,-17.41469 18.43027,-19.78529 5.62359,-1.49739 13.10958,-0.52247 19.4667,2.53518 4.31291,2.07443 9.40099,6.94701 13.6977,13.11756 5.35535,7.69088 10.87028,12.45733 17.687,15.28654 3.66824,1.52246 7.30632,2.40784 6.97902,1.69844 -0.10786,-0.23374 -0.78242,-1.6912 -1.49905,-3.2388 -4.78321,-10.32959 -4.01205,-20.16603 2.21636,-28.27033 1.59182,-2.07125 1.75544,-2.56517 1.75544,-5.299 v -3.01483 l -3.24,-1.73269 c -1.782,-0.95298 -6.264,-2.93467 -9.96,-4.40376 -7.04952,-2.80205 -24.61514,-8.96249 -25.4397,-8.92196 -0.75079,0.0369 5.48662,3.1419 14.11188,7.02494 4.3297,1.9492 8.04755,3.6524 8.2619,3.78487 0.69334,0.42851 -0.64067,2.63554 -1.45426,2.40599 -0.4179,-0.11791 -2.48782,-0.67449 -4.59982,-1.23685 -9.50114,-2.52986 -19.22234,-6.15966 -24,-8.96136 -1.32,-0.77407 -4.236,-2.12947 -6.48,-3.012 -16.42558,-6.45991 -39.25051,-22.10029 -61.62366,-42.22654 -10.53586,-9.47777 -10.77799,-9.67775 -11.09543,-9.16412 -0.16815,0.27207 -0.15465,2.22663 0.03,4.34347 0.40116,4.59876 1.17626,5.8639 6.60475,10.78047 3.03575,2.74946 3.5515,3.42885 3.15929,4.1617 -0.2578,0.4817 -0.79891,0.87582 -1.20246,0.87582 -0.40356,0 -3.20513,-2.47598 -6.22572,-5.50218 -4.73531,-4.7441 -5.83882,-5.60651 -8.00938,-6.25947 -3.27882,-0.98636 -12.01914,-2.4757 -17.0499,-2.90528 -3.44215,-0.29392 -4.09901,-0.22473 -4.92,0.51826 -1.26668,1.14633 -1.19411,1.66867 0.23186,1.66867 1.92405,0 13.64379,3.15455 17.67875,4.7585 5.38635,2.14116 9.46304,4.28348 9.45455,4.96841 -0.0218,1.76371 -0.71695,1.83823 -5.30907,0.56916 -6.66514,-1.84197 -16.39609,-2.17772 -22.05195,-0.76087 -5.51968,1.38273 -10.15441,3.76469 -14.0134,7.20198 -9.80287,8.73167 -15.06442,18.05451 -16.65875,29.51735 -0.89918,6.46486 -0.63021,6.6798 1.58356,1.26547 7.10453,-17.37588 15.93583,-27.69704 26.72109,-31.22898 2.89488,-0.94801 4.53568,-1.1675 8.61587,-1.15253 6.02016,0.0221 10.53129,1.15927 17.04,4.29557 l 4.32,2.08164 -3.44527,0.0421 c -8.00719,0.098 -15.76784,1.99114 -21.27473,5.18987 -3.68678,2.14151 -13.09774,11.07406 -16.13454,15.31435 -3.43568,4.79724 -5.04475,9.19133 -5.68984,15.53793 -0.2486,2.44583 -0.11372,2.20882 1.83381,-3.22244 2.51375,-7.01028 5.35634,-12.14472 8.87857,-16.0369 2.79284,-3.08618 6.95342,-6.14671 10.3148,-7.58757 2.03916,-0.87408 10.96889,-3.4614 11.18851,-3.24177 0.0608,0.0608 -2.18458,1.83358 -4.98966,3.93958 -5.18498,3.89279 -5.39158,4.1298 -12.10776,13.88999 -6.1518,8.94 -9.21433,33.30455 -9.93889,79.07061 l -0.30922,19.5315 1.39711,0.345 c 0.76841,0.18974 4.74511,1.26679 8.83711,2.39344 4.092,1.12664 7.70589,2.06421 8.03086,2.0835 0.32496,0.0193 0.72642,-0.55894 0.89211,-1.28494 z m -21.39642,-21.6 c 0.004,-9.438 0.11109,-18.888 0.23886,-21 0.12777,-2.112 0.4589,-7.944 0.73585,-12.96 0.8009,-14.50591 2.43307,-27.7226 4.50319,-36.46524 0.66932,-2.8267 0.66647,-2.84937 -0.21192,-1.68487 -1.4152,1.87618 -4.56039,8.52557 -6.01195,12.71011 -0.73262,2.112 -1.48823,4.01947 -1.67913,4.23882 -0.70283,0.80756 -2.46746,-5.68604 -2.71716,-9.99882 -0.28998,-5.0082 0.28616,-8.65794 2.02888,-12.8527 0.6826,-1.64302 1.36692,-3.3113 1.52073,-3.7073 0.15381,-0.396 -1.27784,0.792 -3.18143,2.64 -3.77504,3.66479 -8.52954,10.33676 -9.87316,13.85498 -0.46735,1.22376 -0.99318,2.22502 -1.16849,2.22502 -1.29548,0 -1.98731,-13.22474 -0.98188,-18.76935 1.21957,-6.72549 4.40412,-14.31506 8.23694,-19.63065 l 1.90357,-2.64 -2.62777,2.73194 c -11.4224,11.87515 -30.65826,37.7772 -42.173,56.78806 -7.64131,12.61581 -20.54868,37.08232 -20.54868,38.95097 0,2.81032 30.98325,13.85182 49.6429,17.69124 3.1884,0.65605 9.14509,2.03421 13.23709,3.06257 4.092,1.02837 7.818,1.89349 8.28,1.92249 0.78521,0.0493 0.84043,-1.06666 0.84656,-17.10727 z m 523.64464,12.83073 c 1.96416,-0.27123 3.63322,-0.55516 3.70906,-0.63097 0.67186,-0.67187 -18.9348,-3.21953 -24.31733,-3.15975 l -3.60293,0.04 6.24,1.36898 c 3.432,0.75293 7.536,1.79553 9.12,2.31689 1.584,0.52135 3.42,0.86017 4.08,0.75294 0.66,-0.10723 2.80704,-0.41688 4.7712,-0.68811 z m 0.9888,-4.6165 c -6.64363,-2.1249 -16.84968,-3.09076 -24.26184,-2.29604 -3.61257,0.38734 -3.31411,0.42894 5.54184,0.77265 5.61764,0.21802 11.27914,0.72541 14.16,1.26903 5.79423,1.09337 7.47663,1.18721 4.56,0.25436 z m -34.17825,-1.67428 c 0.93965,-0.82503 2.46941,-1.818 3.3995,-2.20661 0.9301,-0.38862 2.45779,-1.55116 3.3949,-2.58344 0.9371,-1.03227 3.43185,-2.86786 5.54385,-4.07908 l 3.84,-2.20222 -3.07819,0.31838 c -5.68901,0.58842 -19.00795,4.4822 -22.09123,6.45833 -0.55488,0.35566 -0.24331,0.96402 1.5971,3.11827 1.97703,2.31409 2.51664,2.67642 3.98607,2.67642 1.21901,0 2.18256,-0.42411 3.408,-1.50005 z m -6.45389,-8.31773 c 4.68293,-1.87048 8.74094,-3.04954 17.11214,-4.97192 1.95807,-0.44965 1.82343,-0.47387 -1.44,-0.25902 -7.29081,0.47998 -14.17305,2.12056 -20.28316,4.83508 -2.21573,0.98436 -2.65584,1.35698 -2.22125,1.88062 0.76286,0.91921 0.87437,0.89499 6.83227,-1.48476 z m -78.91814,-4.86576 c 7.6738,-3.57626 17.58403,-6.1617 26.143,-6.82037 l 4.36728,-0.33609 1.29692,-2.67309 c 2.1204,-4.37036 3.81364,-10.83603 4.09262,-15.62768 0.23203,-3.98476 0.1439,-4.62363 -0.97493,-7.0674 -1.41816,-3.09773 -3.09729,-4.34012 -6.94545,-5.139 -7.7846,-1.61607 -22.11279,5.50187 -29.28701,14.54916 -5.72347,7.21785 -7.9237,12.80621 -7.98365,20.27801 -0.0211,2.64 0.12806,5.39576 0.33163,6.12392 l 0.37013,1.32392 2.50987,-1.47389 c 1.38043,-0.81064 4.11624,-2.22251 6.07959,-3.13749 z m -256.49081,0.39381 c -1.30956,-3.71169 -5.07035,-10.57529 -7.82534,-14.28158 -7.55769,-10.16737 -18.30771,-16.58535 -27.93208,-16.676 -8.08134,-0.0761 -12.48798,3.97533 -12.51095,11.50253 -0.0116,3.79613 1.97522,11.18109 3.01035,11.18947 1.3453,0.0109 5.73008,2.47782 7.80716,4.3924 l 2.24125,2.06592 8.70535,-0.14748 c 9.59684,-0.16257 15.79015,0.52143 22.86535,2.5253 2.244,0.63556 4.12442,1.17437 4.17871,1.19736 0.0543,0.023 -0.18862,-0.77257 -0.5398,-1.76792 z m 229.74252,-27.93966 c 1.45641,-0.5449 2.99664,-1.37596 3.42273,-1.84679 0.43781,-0.48378 1.12335,-2.91959 1.57637,-5.60123 0.92472,-5.47326 0.54941,-9.50373 -1.25558,-13.48362 l -1.06987,-2.35897 -0.89309,3.12 c -1.32883,4.64245 -5.26579,12.17651 -8.81928,16.87732 -1.72848,2.28653 -3.14271,4.31654 -3.14271,4.51114 0,0.67195 7.54152,-0.23013 10.18143,-1.21785 z m -49.32682,-21.20142 c -4.5011,-8.98984 -11.94043,-16.33224 -21.33245,-21.05438 -6.46156,-3.24878 -12.39902,-4.75991 -20.16216,-5.13143 -6.04579,-0.28933 -10.75728,0.25988 -16.08,1.87443 l -3.36,1.01919 3.63792,0.58358 c 6.56976,1.0539 12.198,3.18406 17.6833,6.6927 1.47341,0.94247 2.57534,1.1394 7.71878,1.37944 3.51672,0.16412 7.58933,0.68183 9.84,1.25084 8.10005,2.04785 15.48956,6.90177 20.77292,13.64501 1.51089,1.9284 2.81496,3.45299 2.8979,3.38799 0.0829,-0.065 -0.64435,-1.70631 -1.61621,-3.64737 z m 49.58439,-9.04919 -0.0288,-5.04 -0.3409,5.52 c -0.18744,3.036 -0.46882,6.384 -0.6252,7.44 -0.24427,1.64944 -0.19214,1.5818 0.3697,-0.48 0.37051,-1.35957 0.64156,-4.58491 0.6252,-7.44 z m -0.51111,-7.29 c -0.15321,-0.38291 -0.26697,-0.26917 -0.29001,0.29 -0.0206,0.506 0.0926,0.7895 0.25214,0.63 0.1595,-0.1595 0.17654,-0.5735 0.0379,-0.92 z m -207.55341,-4.61782 c 0.28962,-2.28901 0.0517,-2.49671 -3.63015,-3.16969 l -1.81568,-0.33187 1.76002,2.30469 c 0.96802,1.26758 1.98656,2.80127 2.26344,3.40821 0.62345,1.36663 1.05444,0.69658 1.42237,-2.21134 z m -162.03099,-4.4382 c 1.30051,-1.43769 3.08305,-3.69398 3.9612,-5.01398 0.87816,-1.32 2.15885,-3.02637 2.84598,-3.79193 l 1.24933,-1.39193 -1.61375,0.91193 c -2.84763,1.60919 -7.52019,7.14242 -9.8646,11.68162 -2.6139,5.06101 -2.80866,5.95886 -0.57218,2.63788 0.89621,-1.33079 2.69352,-3.59591 3.99402,-5.03359 z m -7.30349,-6.94567 c 1.848,-1.29133 4.872,-3.88746 6.72,-5.76918 6.16571,-6.27822 12.51009,-10.05591 20.11809,-11.97909 l 4.33549,-1.09594 -1.90679,-0.58755 c -1.04873,-0.32315 -4.11063,-0.6947 -6.80422,-0.82566 -4.06245,-0.1975 -5.45369,-0.0679 -8.16,0.76011 -8.87029,2.71393 -16.35224,10.22532 -22.52647,22.6151 -3.62893,7.28215 -3.58969,7.42171 0.87132,3.09893 2.19592,-2.12787 5.50458,-4.9254 7.35258,-6.21672 z m 129.80001,9.18796 c -0.48785,-0.44816 -7.16001,-3.64345 -7.16001,-3.42892 0,0.28961 6.29717,3.55563 6.92001,3.58904 0.24199,0.013 0.34999,-0.0591 0.24,-0.16012 z m 218.69449,-3.69263 c -2.58826,-5.15732 -4.87987,-8.41015 -8.89363,-12.624 -6.90053,-7.24452 -14.10855,-11.2049 -24.24087,-13.31897 -6.1186,-1.27662 -18.39057,-0.46 -24.39624,1.62342 -1.58068,0.54836 -1.3078,0.60004 3.41924,0.64766 2.97369,0.03 6.54259,0.39033 8.47473,0.85575 6.6432,1.60026 15.06663,6.43351 21.62227,12.40656 2.56599,2.33795 3.22018,2.68303 6,3.16484 4.11557,0.71333 9.78077,3.57975 15.12,7.65027 2.376,1.81142 4.39186,3.24351 4.47975,3.18243 0.0878,-0.0611 -0.62549,-1.67566 -1.58525,-3.58796 z m -98.37072,-18.01002 c 1.7555,-3.13916 1.76808,-3.2009 1.46194,-7.18353 -0.16983,-2.20943 -0.56396,-5.15856 -0.87581,-6.55361 l -0.56707,-2.53648 -0.58733,6.253 c -0.32299,3.43915 -0.82315,7.52881 -1.11139,9.08815 -0.94772,5.1266 -0.73263,5.246 1.67966,0.93247 z M 293.78408,128.58792 c 0.6399,-0.59328 0.63964,-0.64928 -0.002,-0.50331 -0.39726,0.0903 -2.66174,2.21625 -5.03215,4.72425 l -4.30986,4.56 4.31216,-4.0567 c 2.37169,-2.23118 4.63616,-4.35709 5.03216,-4.72424 z m 323.36823,0.81197 c -2.77267,-1.46305 -8.76523,-2.839 -12.04503,-2.76566 -1.60776,0.036 -2.3832,0.15197 -1.7232,0.25783 4.24474,0.68078 9.51024,1.82549 11.87736,2.58212 3.58637,1.14635 4.16141,1.12376 1.89087,-0.0743 z m -314.72823,-5.16182 c 4.6651,-1.67054 8.85176,-2.43963 13.68,-2.51304 l 3.36,-0.0511 -2.16,-0.68522 c -1.188,-0.37687 -4.73604,-1.21153 -7.88452,-1.85479 l -5.72453,-1.16957 -3.99547,3.62736 c -2.19752,1.99506 -3.99548,3.84758 -3.99548,4.11673 0,0.67193 1.8959,0.25709 6.72,-1.47039 z m 309.12,-7.65449 1.68,-0.39225 -1.92,-0.32595 c -5.01307,-0.85105 -18.21787,0.11559 -19.41292,1.42111 -0.37935,0.41434 17.62588,-0.22963 19.65292,-0.70291 z"
       id="path2755" />
  </g>
</svg>
