<?xml version="1.0" standalone="no"?>
<!DOCTYPE svg PUBLIC "-//W3C//DTD SVG 20010904//EN"
 "http://www.w3.org/TR/2001/REC-SVG-20010904/DTD/svg10.dtd">
<svg version="1.0" xmlns="http://www.w3.org/2000/svg"
 width="780.000000pt" height="780.000000pt" viewBox="0 0 780.000000 780.000000"
 preserveAspectRatio="xMidYMid meet">
<metadata>
Created by potrace 1.14, written by Peter Selinger 2001-2017
</metadata>
<g transform="translate(0.000000,780.000000) scale(0.100000,-0.100000)"
fill="#000000" stroke="none">
<path d="M3656 7762 c-2 -2 -35 -5 -72 -7 -38 -3 -82 -7 -99 -9 -16 -3 -50 -8
-75 -11 -25 -4 -54 -8 -65 -10 -11 -2 -40 -6 -65 -9 -25 -4 -52 -9 -60 -11 -8
-2 -30 -7 -48 -10 -56 -9 -303 -74 -372 -97 -36 -12 -68 -23 -72 -24 -5 -1
-10 -3 -13 -4 -3 -1 -8 -3 -12 -4 -20 -5 -60 -18 -78 -26 -55 -25 -150 -60
-162 -60 -7 0 -13 -4 -13 -8 0 -6 -58 -33 -80 -37 -13 -2 -258 -130 -282 -146
-14 -11 -29 -19 -33 -19 -4 0 -30 -15 -58 -33 -29 -18 -59 -37 -68 -42 -87
-53 -335 -234 -434 -317 -21 -18 -91 -84 -155 -145 -63 -62 -118 -113 -122
-113 -3 0 -8 -4 -10 -10 -1 -5 -23 -31 -48 -57 -25 -26 -70 -77 -100 -113 -30
-36 -58 -67 -61 -70 -32 -29 -264 -362 -328 -471 -28 -46 -81 -144 -99 -179
-9 -19 -20 -36 -24 -38 -5 -2 -8 -8 -8 -14 0 -6 -17 -47 -39 -92 -55 -115
-122 -281 -169 -421 -38 -110 -105 -352 -116 -418 -3 -15 -7 -35 -10 -45 -3
-9 -8 -35 -11 -57 -4 -22 -9 -49 -11 -60 -2 -11 -6 -36 -8 -55 -3 -19 -8 -48
-10 -65 -5 -30 -11 -77 -21 -170 -22 -190 -22 -619 0 -788 3 -23 7 -60 9 -82
5 -41 8 -67 27 -190 16 -96 21 -120 65 -305 32 -131 30 -122 37 -140 3 -8 20
-60 37 -115 40 -123 107 -296 151 -390 18 -38 33 -72 33 -75 4 -17 114 -224
158 -295 10 -16 21 -37 25 -45 36 -78 304 -442 428 -581 128 -144 387 -385
520 -483 28 -21 58 -44 68 -52 60 -48 284 -194 387 -251 159 -88 472 -233 504
-233 7 0 16 -3 20 -7 3 -4 12 -8 19 -10 7 -1 44 -14 82 -28 62 -22 247 -78
300 -90 296 -66 412 -84 650 -101 200 -15 566 -6 658 15 23 6 37 5 37 -1 0 -5
5 -6 12 -2 11 7 19 9 93 19 22 3 76 13 120 22 44 8 92 17 107 20 15 2 71 15
125 29 54 13 107 26 119 29 12 3 57 17 100 31 43 14 84 27 89 28 6 2 21 7 35
13 14 6 52 20 85 32 64 24 156 63 273 117 41 19 77 34 82 34 5 0 10 4 12 8 2
5 35 25 73 44 39 20 114 63 168 97 54 33 100 61 103 61 3 0 10 5 17 11 7 5 50
37 97 70 47 33 92 65 100 72 8 7 33 26 55 42 22 17 45 35 51 40 6 6 32 28 58
50 120 102 277 254 366 355 36 41 72 81 80 90 199 215 480 670 615 995 64 154
148 391 159 449 2 11 9 33 15 49 6 15 8 27 6 27 -2 0 0 11 5 25 5 14 12 36 14
48 2 12 14 61 25 109 11 48 23 104 26 125 2 21 7 48 9 59 5 26 12 72 21 139 4
28 9 61 11 75 24 150 23 745 -1 890 -2 14 -7 48 -10 75 -22 185 -89 485 -152
680 -42 130 -112 316 -124 329 -5 6 -9 16 -9 23 0 15 -116 252 -180 368 -65
119 -159 267 -172 273 -5 2 -8 8 -8 13 0 8 -79 122 -117 169 -7 8 -25 31 -40
51 -152 195 -358 407 -563 579 -14 12 -35 30 -48 41 -64 55 -383 279 -397 279
-1 0 -34 19 -71 41 -65 40 -301 160 -374 192 -19 8 -56 24 -82 36 -26 11 -54
21 -61 21 -7 0 -17 4 -22 9 -10 9 -292 106 -336 115 -13 3 -69 16 -124 30 -55
14 -116 28 -135 31 -19 3 -54 10 -78 16 -24 5 -48 7 -53 4 -5 -4 -9 -2 -9 2 0
5 -8 9 -17 9 -10 0 -58 6 -108 13 -49 7 -117 15 -150 18 -66 6 -584 10 -589 5z
m459 -27 c77 -3 151 -8 165 -10 14 -2 52 -6 85 -10 121 -13 334 -53 477 -89
153 -39 371 -113 523 -179 74 -32 304 -144 350 -170 11 -7 47 -28 80 -46 33
-19 95 -59 139 -88 43 -29 80 -53 82 -53 5 0 125 -90 142 -107 7 -7 17 -13 20
-13 4 0 18 -10 32 -22 14 -13 52 -45 85 -73 89 -74 138 -119 255 -235 94 -94
128 -131 220 -236 74 -85 263 -345 327 -449 113 -186 227 -409 292 -575 12
-30 26 -64 31 -75 4 -11 18 -47 30 -80 12 -33 26 -70 31 -83 5 -13 9 -25 9
-29 0 -5 -102 2 -170 12 -113 15 -192 26 -230 30 -55 6 -102 12 -200 26 -41 6
-91 13 -110 15 -51 7 -116 33 -191 76 -36 21 -74 38 -84 38 -10 0 -15 3 -11 7
7 7 14 8 103 14 28 2 49 7 46 12 -8 14 -141 76 -174 82 -18 3 -36 8 -40 11 -4
2 -47 7 -96 10 -48 3 -89 7 -92 9 -4 4 91 50 159 77 l25 10 -35 13 c-47 16
-206 19 -266 4 -27 -7 -69 -21 -94 -31 -38 -16 -48 -17 -70 -6 -14 7 -27 15
-30 18 -16 17 -63 35 -140 54 l-87 22 18 47 c10 26 21 61 24 79 3 17 8 35 11
40 7 11 6 116 -1 153 -24 121 -111 199 -222 197 -92 0 -188 -59 -294 -178 -40
-44 -78 -75 -115 -90 l-34 -14 4 72 c2 60 -1 81 -19 118 -12 25 -25 71 -29
104 -13 125 -45 198 -115 263 -57 53 -81 56 -81 11 -1 -82 -32 -222 -61 -280
-19 -38 -76 -90 -102 -94 -10 -1 -14 11 -16 44 -1 50 -33 128 -81 198 -16 25
-30 47 -30 49 0 20 137 -66 193 -120 20 -19 38 -35 40 -35 4 0 0 65 -8 109
-11 57 -50 123 -114 194 -33 37 -67 80 -75 95 -18 35 -78 89 -120 108 -29 14
-26 14 47 10 42 -2 77 -1 77 3 0 8 -32 29 -98 63 -184 95 -446 19 -678 -195
l-32 -29 -7 44 c-11 67 -12 70 -29 111 -15 33 -35 50 -37 30 -5 -50 -57 -199
-106 -303 -60 -127 -123 -220 -201 -297 -72 -71 -76 -72 -149 -22 -53 37 -106
99 -134 158 -24 50 -33 161 -19 212 7 22 5 29 -5 29 -21 0 -101 -96 -131 -156
-24 -48 -29 -53 -53 -49 -14 3 -48 8 -74 11 l-49 6 51 -49 c65 -63 66 -81 4
-49 -27 13 -131 52 -232 86 -191 64 -206 68 -256 77 l-30 6 20 -23 c15 -17 -2
-11 -70 25 -49 26 -91 51 -93 56 -2 5 -8 9 -13 9 -9 0 -65 36 -79 50 -3 3 -48
37 -100 77 -52 40 -110 86 -128 103 -18 16 -35 30 -37 30 -2 0 -41 36 -87 80
-46 44 -86 80 -90 80 -8 0 -9 -9 -12 -80 -2 -37 0 -37 -71 -24 -16 3 -55 8
-85 12 l-55 7 25 24 c39 36 208 171 285 227 243 176 516 328 785 436 152 62
453 157 547 174 14 3 53 11 87 19 68 16 292 51 376 59 30 3 134 9 230 12 96 4
177 8 178 10 2 1 9 1 15 -1 7 -2 75 -6 152 -10z m-2395 -958 c35 -33 175 -155
195 -170 5 -4 21 -17 35 -28 107 -89 307 -218 410 -263 36 -16 97 -44 135 -62
99 -45 239 -89 260 -80 18 6 18 7 -1 19 -10 7 -58 30 -107 51 -48 22 -86 40
-84 42 6 7 257 -85 309 -113 62 -33 68 -56 29 -118 -51 -84 -57 -149 -22 -249
23 -66 18 -68 -61 -31 -56 25 -109 74 -182 165 -69 86 -115 120 -185 135 -126
27 -236 -27 -293 -144 -30 -61 -34 -193 -9 -268 13 -36 15 -55 7 -63 -14 -14
-33 -13 -43 4 -4 7 -22 31 -40 52 -18 21 -80 100 -139 174 -60 74 -112 137
-116 138 -13 6 -9 41 6 70 14 25 20 43 26 67 1 6 6 17 10 25 7 12 20 79 22
110 1 18 -3 30 -11 30 -6 0 -33 -102 -33 -130 0 -21 -42 -101 -97 -185 -75
-115 -159 -277 -200 -385 -15 -41 -32 -84 -36 -95 -5 -11 -7 -24 -6 -29 1 -4
-3 -14 -8 -20 -6 -7 -12 -21 -14 -32 -12 -69 -32 -137 -41 -140 -6 -2 -49 6
-96 19 l-85 23 1 110 c2 143 13 448 19 501 3 24 7 64 9 90 19 209 79 336 201
430 28 22 30 44 3 27 -7 -5 -21 -10 -31 -11 -35 -6 -93 -42 -135 -83 -37 -38
-105 -157 -105 -187 0 -7 -4 -10 -8 -8 -10 7 16 90 41 130 20 32 111 125 160
163 45 35 130 57 235 62 27 1 -33 33 -100 52 -166 48 -306 -36 -410 -247 -26
-52 -49 -95 -50 -95 -2 0 -2 8 0 19 2 10 6 36 10 57 17 110 135 263 240 314
41 19 67 24 140 24 83 1 156 -7 175 -19 5 -3 11 -1 15 4 9 16 -68 57 -145 76
-8 2 -36 11 -62 19 -27 8 -48 13 -48 10 0 -3 -5 -2 -11 2 -21 13 19 25 63 19
76 -10 153 -27 173 -38 11 -5 42 -32 68 -59 35 -36 52 -47 60 -39 8 8 -1 22
-30 48 -22 21 -45 47 -50 58 -12 23 -15 85 -5 85 4 0 23 -15 42 -33z m2625 -2
c-5 -1 -37 -9 -70 -16 -80 -17 -265 -107 -265 -128 0 -19 16 -18 59 4 101 50
209 68 311 50 45 -8 126 -44 142 -63 9 -10 -2 -7 -32 8 -61 31 -159 34 -267 8
-46 -11 -83 -23 -83 -26 0 -4 35 -7 78 -7 42 0 93 -3 112 -6 28 -5 23 -7 -30
-9 -87 -3 -99 -5 -145 -19 -50 -16 -146 -62 -163 -78 -27 -26 -1 -31 56 -11
78 28 186 32 250 9 134 -49 296 -216 332 -341 11 -37 5 -38 -14 -2 -16 31
-166 192 -166 178 0 -5 17 -36 38 -70 66 -105 93 -172 98 -244 4 -56 2 -63 -7
-42 -7 14 -23 49 -37 79 -49 106 -168 203 -308 251 -72 25 -249 21 -319 -8
-69 -28 -105 -46 -105 -53 0 -4 36 -7 79 -7 44 0 89 -6 100 -12 12 -6 21 -8
21 -5 0 3 27 -8 59 -25 65 -32 175 -134 184 -170 5 -21 4 -21 -26 6 -17 16
-34 32 -37 35 -16 20 -139 90 -182 105 -109 36 -234 9 -318 -68 -53 -49 -93
-105 -80 -113 6 -4 21 6 33 22 81 104 170 152 272 147 73 -4 118 -21 206 -80
91 -60 106 -80 36 -50 -127 57 -246 73 -304 42 -38 -19 -87 -72 -75 -80 6 -3
29 10 52 29 77 64 206 46 398 -56 39 -22 75 -39 78 -39 11 0 -6 63 -27 105
-12 22 -36 59 -55 82 -41 50 -32 56 57 33 132 -34 204 -98 284 -252 19 -36 26
-40 32 -15 1 7 6 28 11 48 11 44 7 134 -7 173 -6 15 -11 33 -11 39 0 11 24
-36 48 -95 10 -24 15 -27 44 -21 45 8 91 44 121 95 35 60 68 179 71 256 1 38
11 41 27 10 7 -13 15 -25 19 -28 16 -11 49 -89 57 -136 7 -39 10 -169 3 -169
-2 0 -5 -15 -13 -58 -5 -22 -23 -68 -83 -203 -3 -7 9 -9 33 -7 88 6 94 9 238
74 22 10 79 58 127 108 57 58 106 98 141 115 210 103 361 -71 294 -339 -2 -5
-11 -34 -22 -62 -17 -47 -22 -53 -47 -53 -24 0 -27 3 -18 18 20 36 37 120 37
180 0 59 -2 64 -38 96 -34 32 -41 34 -98 31 -124 -5 -279 -117 -338 -243 -24
-49 -27 -69 -26 -144 0 -49 -2 -88 -6 -88 -11 0 -126 -113 -157 -155 -50 -68
-49 -68 -50 14 -1 114 -11 154 -62 254 -5 10 47 9 89 -3 20 -6 53 -21 73 -35
20 -13 36 -22 36 -19 0 11 -34 64 -41 64 -4 0 -9 6 -12 14 -4 11 2 12 28 6 54
-12 61 3 18 37 -87 69 -204 99 -358 90 -51 -2 -97 -7 -102 -10 -4 -3 -26 -8
-48 -11 -66 -10 -204 -55 -295 -96 -77 -35 -112 -46 -205 -69 -63 -15 -246 -2
-350 25 -33 9 -67 18 -75 19 -8 2 -15 4 -15 5 0 1 -7 3 -15 5 -8 2 -53 16
-100 30 -65 19 -108 26 -180 26 -52 0 -98 0 -102 0 -5 -1 -10 -1 -13 -1 -3 -1
-23 -7 -45 -15 -22 -8 -40 -12 -40 -10 0 10 -140 -71 -192 -112 -32 -24 -58
-46 -58 -48 0 -2 15 1 33 6 17 6 54 13 82 16 l50 6 -39 -44 c-21 -24 -43 -48
-47 -53 -5 -5 -24 2 -47 16 -21 14 -65 39 -98 56 -57 29 -62 34 -103 117 -50
101 -147 208 -222 243 -161 77 -294 26 -288 -110 1 -29 6 -65 10 -80 6 -23 4
-28 -11 -28 -12 0 -22 11 -29 33 -22 69 -33 175 -19 183 5 3 6 9 3 13 -9 15
25 96 55 130 67 75 171 96 271 53 42 -18 129 -101 168 -161 46 -72 146 -133
250 -154 79 -17 203 -16 208 0 3 9 -20 13 -84 15 l-88 3 -28 52 c-36 67 -42
149 -15 211 21 47 34 47 43 -1 9 -46 53 -118 107 -176 44 -47 68 -62 68 -43 0
4 -23 32 -50 62 -62 68 -99 143 -107 217 -6 59 -6 76 -2 148 2 46 42 148 72
185 l20 25 -8 -30 c-4 -16 -9 -39 -11 -50 -6 -26 -6 -144 0 -172 11 -54 49
-117 103 -173 59 -60 83 -73 83 -45 0 8 -4 15 -8 15 -15 0 -93 84 -119 128
-28 47 -37 90 -36 167 2 108 12 122 31 43 22 -96 105 -194 210 -248 38 -20 44
-21 65 -7 43 28 139 133 184 201 50 76 143 262 143 287 0 9 8 23 17 30 13 11
15 11 9 1 -4 -7 -10 -32 -13 -55 -2 -23 -11 -66 -19 -95 -16 -56 -16 -86 2
-74 5 4 31 41 58 84 42 69 85 115 172 188 101 85 298 168 399 168 22 0 36 -1
30 -3z m95 -39 c-9 -9 -163 -18 -157 -9 3 5 41 10 84 11 43 2 75 1 73 -2z
m-3000 -37 c28 -6 50 -13 48 -15 -2 -2 -24 -6 -48 -9 -25 -3 -67 -12 -93 -21
-27 -9 -51 -13 -54 -10 -10 9 58 66 78 66 10 0 41 -5 69 -11z m2963 -76 c-7
-2 -19 -2 -25 0 -7 3 -2 5 12 5 14 0 19 -2 13 -5z m71 -11 c3 -5 -8 -6 -25 -4
-16 2 -29 6 -29 8 0 8 49 4 54 -4z m-718 -19 c-2 -10 0 -29 4 -43 6 -23 -15
-90 -29 -90 -4 0 -2 34 3 75 6 41 13 75 17 75 4 0 6 -8 5 -17z m634 -3 c0 -5
-5 -10 -11 -10 -5 0 -7 5 -4 10 3 6 8 10 11 10 2 0 4 -4 4 -10z m55 -45 c106
-30 212 -117 269 -219 30 -54 28 -68 -5 -37 -13 12 -35 27 -51 33 -15 7 -28
16 -28 19 0 3 -19 11 -42 18 -62 19 -78 27 -133 71 -76 61 -167 101 -231 103
-30 1 -54 5 -54 9 0 5 3 8 8 9 22 1 97 12 99 13 9 8 118 -4 168 -19z m60 15
c3 -6 -1 -7 -9 -4 -18 7 -21 14 -7 14 6 0 13 -4 16 -10z m-2987 -9 c12 -1 22
-6 22 -13 0 -6 -3 -9 -6 -6 -16 17 -143 -46 -199 -99 -11 -10 -48 -42 -82 -70
-34 -28 -72 -61 -84 -72 -13 -11 -24 -19 -26 -17 -12 12 85 167 125 199 12 10
28 24 35 31 34 34 96 55 152 51 22 -2 50 -3 63 -4z m3119 -75 l38 -40 -36 30
c-20 16 -46 37 -58 47 -12 9 -25 17 -30 17 -5 0 -14 7 -21 15 -28 33 70 -30
107 -69z m-3509 -8 c-16 -24 -48 -106 -49 -123 -1 -5 -5 -18 -10 -28 -9 -16
-13 -141 -6 -179 4 -20 17 -36 17 -21 0 14 66 109 101 148 29 31 31 24 10 -39
-15 -42 -10 -153 8 -184 9 -16 10 -15 16 3 13 39 66 147 70 144 2 -3 0 -22 -5
-44 -14 -66 -24 -143 -36 -290 -3 -33 -7 -168 -10 -300 -3 -132 -7 -241 -9
-244 -5 -4 -97 15 -260 56 -55 14 -104 26 -110 27 -73 17 -319 112 -334 130
-7 9 4 40 43 117 61 121 135 258 147 273 5 6 46 68 93 138 83 126 200 284 253
344 16 17 39 45 52 63 28 36 40 42 19 9z m217 -148 c-25 -32 -50 -62 -55 -65
-17 -10 2 28 29 59 74 85 90 89 26 6z m2820 -34 c64 -8 107 -23 170 -62 75
-45 97 -65 151 -138 60 -80 55 -89 -11 -22 -31 31 -62 56 -69 56 -8 0 -19 6
-25 14 -6 7 -26 17 -44 21 -17 4 -39 9 -47 11 -8 2 -44 7 -80 10 -42 5 -86 18
-123 36 -32 17 -64 31 -70 32 -7 2 -29 6 -50 11 -47 9 -38 21 23 30 25 4 46 8
47 9 3 3 70 -2 128 -8z m-1229 -43 c5 -31 -10 -29 -31 3 -16 25 -16 26 6 22
14 -2 23 -11 25 -25z m2131 -274 c3 -30 0 -73 -6 -96 -9 -34 -17 -44 -44 -52
-40 -13 -97 -20 -97 -12 0 3 15 28 34 54 19 27 47 77 62 112 16 36 32 61 37
56 4 -4 11 -32 14 -62z m-3192 -109 c33 -41 65 -81 72 -90 6 -8 42 -53 79
-100 37 -47 71 -90 75 -96 6 -7 -1 -22 -16 -40 -14 -16 -39 -51 -55 -79 -16
-27 -45 -61 -64 -74 -48 -32 -171 -162 -207 -219 -16 -25 -29 -41 -29 -35 0
19 -63 75 -107 95 -23 10 -65 20 -93 21 -27 2 -51 6 -51 10 -1 6 11 78 16 97
10 42 53 169 72 215 56 135 170 349 207 391 12 12 19 5 101 -96z m3717 48 c50
-18 62 -90 34 -196 -22 -80 -39 -102 -84 -103 -20 0 -44 -2 -52 -4 -8 -1 -28
-5 -45 -8 -46 -8 -145 -44 -197 -72 -25 -14 -49 -21 -52 -17 -11 19 2 141 20
178 21 45 60 101 89 126 69 60 207 123 245 111 8 -3 27 -9 42 -15z m-3145 -77
c48 -14 133 -77 176 -130 37 -45 104 -167 96 -175 -2 -2 -22 2 -44 10 -24 9
-92 16 -171 19 -127 4 -133 5 -177 35 -25 16 -50 30 -55 30 -11 0 -29 47 -35
95 -5 36 17 96 41 110 43 25 99 27 169 6z m2410 -125 c34 -3 79 -12 100 -21
21 -9 45 -18 53 -19 8 -2 13 -7 10 -11 -5 -9 -43 -8 -105 1 -28 4 -29 3 -11
-11 11 -8 26 -15 33 -15 7 0 13 -4 13 -8 0 -5 -25 -8 -56 -7 -30 1 -57 -2 -60
-7 -3 -4 7 -20 21 -35 56 -60 76 -135 71 -265 -4 -77 -10 -109 -29 -150 -25
-56 -83 -124 -130 -153 -26 -17 -25 -15 12 41 54 83 73 143 72 242 0 88 -17
149 -58 211 -27 40 -70 81 -85 81 -12 0 -130 -64 -169 -91 -56 -39 -288 -149
-350 -165 -65 -18 -298 -25 -364 -12 -57 11 -150 38 -215 62 -36 13 -119 43
-184 67 l-119 43 -34 -39 c-103 -119 -81 -317 49 -448 49 -50 42 -55 -20 -14
-20 13 -56 60 -90 117 l-57 95 1 95 c0 75 5 104 21 137 12 24 17 45 13 48 -12
7 -96 -12 -131 -31 -29 -14 -29 -14 -17 5 6 11 21 23 33 27 11 4 29 10 40 14
18 6 17 8 -12 23 -18 10 -35 17 -38 17 -42 -1 -58 1 -49 9 8 9 112 64 124 66
3 1 25 7 50 15 77 23 204 20 300 -7 205 -57 318 -84 370 -89 126 -11 266 1
337 31 17 7 34 11 37 7 3 -3 6 0 6 6 0 7 9 12 19 12 11 0 22 4 25 9 7 11 156
66 231 85 92 23 115 27 185 33 36 3 67 7 68 8 2 2 9 2 15 0 7 -2 40 -6 74 -9z
m-2580 -116 c21 0 84 -71 105 -117 23 -52 21 -113 -6 -238 -56 -258 -168 -453
-291 -510 -52 -24 -59 -26 -130 -26 -53 1 -74 8 -180 60 -145 72 -206 90 -357
106 l-57 7 -23 -49 c-36 -76 -92 -125 -188 -163 -53 -21 -71 -23 -330 -34 -58
-3 -112 -7 -120 -10 -8 -3 -33 -7 -55 -10 -126 -16 -139 -28 -137 -129 2 -97
2 -103 19 -172 7 -33 16 -69 18 -80 3 -11 11 -38 19 -60 14 -40 6 -62 -18 -47
-6 3 -31 5 -56 4 -27 0 -62 7 -86 19 -23 11 -48 17 -56 14 -19 -8 -36 -44 -44
-95 -4 -22 -12 -40 -19 -40 -18 0 -53 79 -63 143 -10 62 -8 87 8 177 19 101
26 166 35 355 8 155 15 208 35 270 6 18 12 41 14 51 10 49 167 468 180 482 2
2 26 -8 53 -21 48 -24 263 -102 306 -111 12 -3 68 -16 124 -30 56 -14 112 -27
125 -30 13 -2 94 -23 182 -46 97 -25 186 -43 230 -44 40 -2 84 -10 101 -19 38
-19 91 -75 100 -104 8 -28 26 -26 86 9 61 36 125 110 179 205 91 163 106 188
143 226 44 44 93 69 122 62 11 -3 25 -5 32 -5z m3478 -15 c111 -19 186 -64
281 -165 141 -151 220 -338 260 -610 10 -71 7 -216 -5 -237 -10 -17 -11 -17
-12 0 -3 35 -17 64 -34 70 -10 4 -13 -14 -13 -80 -1 -98 -10 -163 -23 -163 -5
0 -11 11 -15 25 -3 13 -12 29 -20 36 -17 14 -17 10 -13 -166 2 -65 -13 -235
-26 -290 -9 -38 -17 -79 -19 -90 -2 -11 -4 -23 -5 -27 0 -4 -27 4 -58 18 -126
56 -122 55 -189 56 -104 1 -166 -64 -157 -166 6 -78 29 -113 144 -218 10 -10
21 -18 24 -18 5 0 46 -34 76 -62 17 -16 16 -21 -15 -100 -118 -298 -248 -556
-339 -670 -28 -35 -51 -43 -42 -15 2 7 7 30 10 51 3 21 7 48 10 60 2 12 7 38
10 60 3 21 7 41 9 45 3 3 7 25 10 47 4 23 11 55 16 72 5 18 7 32 4 32 -3 0 0
9 6 19 10 19 -3 41 -16 28 -7 -7 -42 -156 -60 -257 -2 -14 -6 -34 -9 -45 -2
-11 -7 -47 -10 -80 -3 -33 -8 -73 -10 -90 -2 -16 -7 -57 -10 -90 -9 -82 -59
-271 -91 -347 -121 -287 -327 -356 -574 -192 -64 42 -134 104 -295 259 -93 90
-133 117 -194 133 -60 15 -168 7 -227 -17 -57 -22 -143 -69 -162 -88 -7 -7
-16 -13 -20 -13 -7 0 -33 -22 -107 -89 -16 -14 -64 -53 -105 -86 -41 -33 -82
-67 -91 -75 -35 -30 -49 -41 -126 -91 -99 -65 -160 -92 -269 -119 -251 -63
-473 9 -616 200 -56 75 -134 259 -154 364 -33 170 -47 304 -53 529 -1 15 -7
27 -14 27 -11 0 -13 -19 -11 -82 3 -98 12 -235 20 -298 l5 -45 -48 51 c-26 28
-52 57 -58 66 -145 214 -198 307 -271 473 -35 78 -104 266 -124 335 -8 25 -15
50 -16 55 -20 65 -84 334 -88 368 -3 24 -7 50 -10 58 -5 14 -8 36 -23 169 -17
153 -6 569 16 593 4 4 28 1 53 -7 69 -20 183 -14 238 14 47 23 160 133 160
156 0 7 4 14 9 16 8 3 73 136 85 176 5 13 16 22 29 23 44 2 123 8 132 9 6 2
19 2 30 1 19 -1 20 -8 20 -154 0 -148 -3 -169 -30 -232 -28 -65 -45 -115 -39
-115 4 0 2 -6 -4 -12 -10 -13 -47 -154 -57 -218 -3 -19 -8 -46 -10 -60 -5 -25
-9 -49 -22 -145 -8 -59 -8 -532 1 -590 3 -22 8 -58 11 -80 10 -73 31 -199 42
-245 4 -14 7 -31 9 -39 15 -75 81 -291 111 -361 83 -194 159 -330 224 -405 31
-35 96 -81 104 -73 4 4 9 40 20 148 3 30 7 66 10 80 2 14 7 45 11 70 3 25 7
52 8 60 2 8 -1 33 -6 55 -6 22 -11 47 -13 55 -2 8 -8 35 -15 60 -7 25 -14 54
-16 65 -2 11 -7 34 -11 50 -20 82 -9 105 122 260 63 75 71 83 125 125 25 19
47 37 50 40 3 3 16 11 29 18 13 8 39 23 58 33 40 23 132 55 183 65 46 9 151 9
217 1 86 -11 242 -79 325 -140 23 -17 32 -19 50 -9 26 13 143 52 173 58 11 2
43 8 70 13 73 14 190 6 270 -19 62 -20 121 -46 135 -60 3 -3 25 -19 50 -35 59
-39 251 -234 275 -279 l19 -36 -67 -232 c-37 -128 -69 -238 -71 -245 -1 -7 -5
-16 -9 -19 -4 -4 -7 -14 -7 -23 0 -32 -16 -44 -39 -31 -21 10 -21 16 -14 88
22 231 -16 365 -140 495 -52 54 -77 48 -92 -23 -16 -77 -108 -342 -121 -347
-7 -2 -55 8 -106 23 -83 25 -108 28 -238 28 -130 0 -209 -6 -229 -19 -4 -2
-18 -6 -32 -9 -13 -2 -50 -14 -81 -25 l-57 -20 -30 47 c-26 43 -72 136 -92
187 -4 11 -13 36 -20 55 -12 33 -26 50 -41 50 -18 0 -57 -57 -77 -114 -26 -73
-31 -228 -10 -309 12 -48 11 -49 -16 -73 -42 -36 -46 -33 -60 42 -2 10 -4 19
-5 19 -2 0 -21 112 -25 150 -2 11 -5 38 -8 60 -10 64 -19 201 -22 320 -3 133
-8 154 -38 151 -76 -9 -170 -106 -239 -246 -22 -44 -65 -174 -73 -220 -3 -19
-11 -55 -17 -80 -5 -25 -11 -56 -13 -70 -2 -14 -6 -47 -9 -75 -4 -27 -8 -63
-11 -80 -7 -53 -8 -145 -2 -152 13 -13 157 -15 208 -3 77 18 196 75 334 162
66 41 145 87 175 103 30 15 67 34 83 42 15 8 27 11 27 7 0 -3 6 -2 13 4 14 12
137 53 137 46 0 -2 11 1 24 6 57 21 245 30 328 15 21 -3 68 -15 105 -26 38
-11 73 -21 78 -23 6 -1 27 -10 48 -19 20 -9 54 -24 75 -33 20 -9 102 -56 182
-104 162 -97 213 -119 284 -124 50 -3 121 11 145 29 42 31 102 96 126 138 27
47 27 49 22 180 -6 145 -15 265 -21 276 -2 3 -7 31 -11 61 -14 119 -33 180
-72 241 -32 49 -65 64 -88 39 -15 -17 -40 -85 -50 -140 -3 -14 -11 -47 -18
-74 l-13 -48 -49 53 c-28 29 -79 82 -113 117 -35 36 -65 74 -67 86 -2 12 -6
53 -10 91 -3 39 -7 79 -10 90 -2 11 -4 28 -4 38 -1 9 -8 17 -17 17 -12 0 -15
-6 -10 -25 4 -14 9 -55 12 -92 11 -122 13 -119 -43 -80 -57 40 -130 76 -181
88 -20 5 -46 12 -57 15 -11 2 -60 5 -110 5 -97 1 -180 -15 -290 -55 -60 -22
-72 -23 -90 -12 -83 55 -219 116 -287 130 -13 3 -34 8 -48 11 -30 7 -175 7
-210 0 -23 -4 -77 -17 -90 -20 -31 -9 -137 -60 -187 -89 l-42 -25 5 42 c11 74
29 107 61 107 74 0 116 78 148 270 13 79 16 86 57 113 52 34 64 34 72 1 6 -24
55 -104 89 -147 24 -29 72 -41 104 -25 25 12 31 25 61 143 18 72 35 137 39
145 4 8 8 20 8 25 5 33 28 67 52 76 31 12 193 14 245 4 156 -30 218 -48 222
-63 3 -10 8 -40 11 -67 11 -100 26 -207 32 -221 25 -65 127 -8 184 104 l23 43
48 -53 c26 -29 48 -55 48 -58 0 -3 9 -11 19 -17 17 -10 18 -9 13 10 -3 12 -8
24 -11 27 -3 3 -28 31 -55 64 l-50 58 15 42 c10 26 20 40 29 38 8 -2 29 -5 45
-6 47 -3 53 -11 49 -68 -2 -29 -6 -122 -8 -206 -5 -125 -3 -159 9 -183 9 -16
21 -30 28 -30 35 -4 61 2 90 23 35 24 117 109 117 120 0 4 6 13 13 20 40 41
123 206 163 324 31 93 33 167 7 258 -5 17 -8 15 -24 -15 -34 -68 -105 -134
-185 -175 -75 -38 -80 -39 -178 -38 -128 0 -153 6 -251 56 -220 113 -353 170
-420 179 -11 2 -46 -9 -79 -24 -32 -15 -62 -27 -67 -27 -5 0 -9 -5 -9 -12 0
-6 -3 -9 -6 -5 -3 3 -22 -3 -42 -13 -63 -32 -214 -92 -282 -112 -93 -26 -124
-31 -220 -30 -133 0 -258 52 -355 147 -21 20 -39 34 -40 33 -10 -13 -41 -127
-39 -143 2 -11 6 -42 9 -70 18 -167 86 -350 164 -445 51 -61 53 -67 42 -88 -6
-11 -15 -50 -21 -88 -11 -66 -14 -72 -75 -134 -56 -57 -115 -128 -164 -199
-15 -20 -15 -20 -28 -1 -8 11 -20 20 -28 20 -20 0 -72 -64 -95 -118 -12 -26
-25 -56 -30 -67 -8 -17 -15 -39 -27 -80 -1 -5 -11 -43 -20 -84 l-18 -74 -22
54 c-32 79 -46 113 -48 119 0 3 -15 50 -32 105 -32 102 -58 203 -68 265 -3 19
-8 42 -10 50 -2 8 -7 38 -11 65 -3 28 -8 59 -10 70 -13 61 -19 187 -19 405 0
235 5 306 26 415 6 28 12 61 14 75 6 36 11 59 25 110 7 25 14 52 15 60 2 8 13
39 24 68 11 29 20 54 20 55 18 59 41 86 41 50 0 -41 68 -195 83 -190 6 2 23
61 38 133 31 149 56 237 98 350 l29 81 -68 15 c-46 10 -121 14 -233 13 l-164
-2 8 31 c4 17 11 45 13 61 7 35 11 54 25 115 5 24 8 46 6 49 -3 2 -1 9 4 15 6
7 1 37 -14 81 -13 39 -21 72 -19 74 6 6 164 3 194 -4 14 -3 34 -7 45 -9 39 -6
123 -34 166 -56 78 -40 150 -90 144 -100 -3 -6 1 -10 10 -10 29 0 215 -207
215 -239 0 -6 4 -11 9 -11 5 0 16 -18 25 -39 17 -44 79 -111 101 -111 8 0 15
-4 15 -8 0 -5 6 -9 13 -10 6 0 32 -8 56 -17 38 -14 78 -21 137 -24 9 -1 9 -12
-1 -43 -14 -49 -1 -126 30 -175 22 -36 116 -123 132 -123 7 0 13 -3 13 -8 0
-12 107 -51 181 -66 87 -17 228 -13 304 9 131 38 247 126 309 235 17 30 31 57
32 60 0 3 5 16 11 30 6 14 14 41 18 60 12 58 18 63 77 66 70 3 153 40 204 90
22 22 73 92 114 157 175 282 392 410 685 402 44 -1 98 -6 120 -10z m-1012 -52
c85 -90 108 -276 50 -403 -38 -80 -108 -144 -173 -155 -34 -6 -70 9 -70 28 0
19 -48 62 -95 86 -68 34 -152 49 -276 46 -84 -2 -122 1 -146 12 -42 19 -83 10
-118 -27 -17 -18 -54 -38 -94 -51 -78 -26 -169 -70 -230 -112 -37 -25 -49 -29
-88 -23 -53 7 -136 59 -187 117 -95 109 -105 282 -22 391 12 16 42 18 66 3 5
-3 18 -8 29 -10 10 -2 47 -15 82 -28 101 -39 230 -85 276 -97 l42 -10 -14 -34
c-25 -60 5 -126 57 -126 24 0 57 35 59 62 1 10 2 24 3 31 1 6 -2 20 -6 30 -5
9 -5 17 -1 18 4 0 57 1 117 2 l109 2 11 -40 c15 -52 53 -75 90 -56 30 16 40
42 37 93 l-2 36 93 45 c51 24 152 78 223 120 72 42 135 77 141 77 5 0 22 -12
37 -27z m1472 17 c-11 -4 -62 -21 -112 -38 -71 -22 -93 -26 -93 -16 0 8 3 13
8 12 4 -1 21 4 37 11 33 14 49 18 115 30 59 11 69 11 45 1z m50 -35 c-11 -8
-25 -19 -32 -25 -7 -5 -38 -28 -69 -50 l-57 -40 -28 21 c-16 11 -29 26 -29 34
0 14 93 49 171 64 63 12 66 12 44 -4z m-3125 -101 c-7 -16 -13 -58 -15 -94 -2
-36 -4 -67 -4 -69 -1 -2 -31 27 -67 64 -51 52 -63 70 -53 77 34 23 135 65 142
58 4 -4 3 -20 -3 -36z m3248 10 c28 -4 52 -11 52 -16 0 -5 -4 -7 -8 -4 -5 3
-42 8 -83 12 -41 3 -76 8 -78 10 -6 6 57 5 117 -2z m-13 -38 c87 -10 94 -11
101 -19 4 -4 1 -8 -7 -8 -8 -1 -25 -3 -38 -4 -21 -2 -47 3 -116 21 -11 3 -25
6 -32 8 -7 1 -15 5 -18 8 -6 6 10 5 110 -6z m-153 -21 c151 -21 287 -67 408
-136 30 -17 55 -30 55 -29 0 1 20 -4 45 -11 25 -7 54 -13 65 -14 11 0 38 -4
60 -8 50 -8 109 -16 166 -22 24 -2 67 -7 94 -11 28 -4 61 -8 75 -9 14 -2 41
-6 60 -8 32 -5 54 -7 178 -22 40 -5 82 -20 82 -30 0 -2 11 -46 26 -97 14 -51
27 -100 29 -108 13 -49 64 -302 69 -340 3 -25 8 -57 11 -72 5 -28 5 -28 -132
-89 -18 -7 -33 -17 -33 -21 0 -5 -7 -8 -16 -8 -30 0 -156 -106 -179 -151 -13
-25 -12 -27 28 -50 23 -13 44 -24 47 -24 3 0 25 -7 50 -16 79 -28 153 -48 208
-55 29 -4 55 -11 58 -16 11 -17 2 -413 -9 -425 -3 -3 -59 -6 -124 -8 -142 -2
-134 -1 -126 -22 35 -101 109 -227 169 -288 39 -39 39 -41 31 -90 -7 -41 -25
-118 -61 -270 -2 -5 -6 -28 -11 -49 l-8 -40 -23 30 c-13 16 -24 34 -24 41 0 6
-3 13 -7 15 -5 2 -19 23 -32 48 -13 25 -45 86 -72 136 -43 81 -47 95 -39 124
8 27 6 38 -12 64 -23 32 -44 49 -66 52 -8 2 -15 4 -15 6 -4 8 -42 78 -74 138
-20 36 -51 94 -71 130 -104 194 -172 255 -281 249 -94 -5 -224 -100 -345 -254
-122 -154 -226 -201 -359 -161 -69 21 -240 138 -320 221 -117 120 -65 287 85
271 26 -3 66 -14 90 -25 212 -96 248 -108 325 -109 43 0 76 7 110 22 53 25
133 107 165 170 54 105 125 170 198 181 25 4 47 6 50 5 12 -2 127 42 165 64
50 30 122 106 140 149 7 18 17 36 22 40 4 5 8 12 9 15 0 4 5 18 11 32 31 72
93 235 93 245 0 18 -541 9 -641 -10 -11 -2 -47 -7 -80 -10 -33 -4 -70 -9 -82
-11 -12 -3 -45 -8 -72 -11 l-51 -5 -3 39 c-4 68 -19 180 -28 218 -3 11 -6 27
-7 35 -19 102 -101 296 -157 369 -33 41 -29 42 83 26z m-4287 -72 c-41 -63
-116 -143 -155 -163 l-24 -13 18 29 c44 68 184 220 194 210 2 -3 -13 -31 -33
-63z m2070 -173 c-28 -12 -57 -12 -50 0 3 6 21 10 38 9 27 0 29 -2 12 -9z
m350 -25 c108 -25 185 -87 185 -148 0 -77 -70 -225 -141 -297 -96 -98 -202
-141 -360 -145 -142 -4 -189 5 -304 60 -120 59 -184 143 -185 243 0 86 18 109
131 170 109 58 262 106 379 119 25 3 47 6 48 8 9 9 202 1 247 -10z m-2775
-276 c40 -11 102 -34 138 -51 l64 -31 -6 -46 c-3 -25 -10 -67 -14 -93 -9 -47
-8 -409 1 -478 3 -19 8 -57 11 -85 14 -109 58 -332 75 -376 5 -13 9 -27 9 -32
3 -46 82 -297 141 -446 64 -159 251 -498 282 -509 5 -2 9 -8 9 -13 0 -10 19
-34 82 -103 55 -59 71 -91 88 -166 54 -237 165 -420 310 -512 101 -64 160 -80
300 -83 131 -2 208 12 309 56 50 22 71 24 119 15 174 -33 284 -42 497 -40 116
1 225 4 243 8 18 3 51 8 74 11 115 18 360 94 468 146 34 17 36 17 90 -11 106
-56 149 -68 235 -66 114 3 172 34 260 140 21 26 95 165 95 179 0 3 5 18 12 34
6 15 12 33 14 38 6 26 35 142 39 158 2 10 9 53 16 97 10 70 15 82 52 122 83
88 204 309 307 558 28 69 58 139 66 157 8 17 14 35 14 40 0 23 23 32 44 17 45
-29 131 -51 191 -49 100 4 185 58 275 175 86 111 208 216 282 241 80 27 137 9
204 -63 39 -41 55 -70 199 -341 63 -120 63 -108 0 -171 -12 -12 -35 -40 -53
-62 -31 -40 -32 -45 -27 -115 5 -88 7 -136 6 -166 l-1 -21 -51 18 c-28 11 -54
22 -57 25 -11 11 -14 42 -16 185 -2 169 -10 196 -58 186 -32 -6 -101 -57 -153
-111 -28 -30 -30 -37 -27 -98 1 -36 -1 -68 -6 -70 -8 -5 -145 41 -174 58 -11
7 -20 29 -24 60 -10 83 -12 199 -4 215 21 40 -31 127 -67 113 -28 -10 -147
-90 -167 -112 -14 -15 -16 -29 -11 -68 17 -124 14 -136 -50 -218 -34 -44 -44
-100 -23 -127 7 -9 63 -38 123 -64 61 -26 139 -60 175 -76 36 -17 110 -49 165
-73 55 -23 125 -54 155 -68 228 -105 312 -137 329 -125 30 22 76 74 132 149
76 101 79 108 69 155 -22 99 -35 274 -20 274 5 0 10 -9 10 -20 0 -11 4 -20 8
-20 4 0 15 -15 23 -32 9 -18 43 -85 77 -150 l62 -116 -54 -154 c-57 -164 -102
-275 -118 -295 -6 -7 -8 -13 -5 -13 20 0 -263 -514 -335 -610 -11 -14 -57 -77
-104 -140 -46 -63 -88 -117 -92 -120 -4 -3 -18 -18 -31 -35 -67 -88 -323 -351
-410 -422 -19 -15 -44 -37 -55 -48 -35 -33 -154 -126 -260 -202 -217 -156
-526 -323 -776 -421 -203 -79 -465 -157 -630 -186 -19 -3 -46 -8 -60 -11 -48
-10 -156 -26 -200 -31 -25 -2 -55 -6 -66 -8 -108 -20 -539 -27 -709 -12 -161
13 -234 22 -268 32 -10 3 -38 7 -63 9 -24 3 -48 6 -53 9 -4 3 -23 8 -42 11
-182 31 -535 140 -724 223 -295 131 -603 313 -825 489 -157 124 -185 149 -336
298 -158 156 -239 248 -360 407 -90 118 -249 360 -294 448 -19 36 -40 72 -48
82 -7 9 -15 22 -16 30 -1 7 -8 24 -16 38 -31 54 -111 237 -155 353 -26 67 -50
131 -54 142 -34 85 -108 367 -103 388 1 4 -3 7 -9 7 -5 0 -8 4 -5 9 4 5 2 21
-3 35 -6 14 -12 42 -15 63 -3 21 -10 63 -16 94 -6 31 -13 76 -15 100 -3 24 -7
55 -9 69 -34 178 -39 632 -11 925 3 33 8 71 10 85 3 14 7 45 10 70 3 25 10 68
15 95 5 28 12 63 14 79 9 54 15 38 10 -30 -8 -125 -29 -288 -39 -305 -8 -11
-7 -120 0 -164 8 -49 30 -99 64 -143 22 -31 25 -42 23 -117 -2 -64 1 -87 13
-99 22 -21 81 -31 111 -17 31 14 26 15 60 -15 42 -38 153 -109 198 -128 22 -9
59 -19 83 -22 37 -4 47 -1 69 21 24 24 26 32 21 78 -3 29 -8 66 -12 83 -4 21
-2 31 7 31 7 1 58 4 113 8 55 4 129 8 165 10 l65 2 22 -66 c13 -36 23 -89 23
-117 0 -34 5 -56 15 -64 22 -18 96 -6 161 26 70 34 84 70 52 135 -32 68 -97
279 -123 404 -4 17 -9 66 -12 110 -5 86 -25 129 -59 131 -42 2 -166 -86 -179
-127 -3 -9 1 -43 10 -75 8 -32 15 -64 15 -71 0 -10 -49 -12 -228 -10 -192 2
-232 5 -253 19 -21 13 -30 36 -53 128 -15 61 -29 147 -31 191 -5 95 6 112 80
123 26 4 57 9 68 12 39 7 142 14 273 18 210 6 324 60 399 189 l28 48 61 -6
c34 -3 95 -14 136 -26z m5642 -115 c7 -5 4 -14 -41 -116 -12 -26 -21 -50 -21
-53 0 -2 -14 -35 -31 -72 -30 -65 -81 -140 -106 -156 -6 -4 -18 -14 -25 -21
-31 -31 -130 -69 -208 -80 -83 -13 -109 -26 -163 -86 -26 -29 -61 -78 -77
-109 -86 -161 -218 -218 -373 -161 -42 16 -42 16 -22 110 3 14 8 41 10 60 3
19 8 50 11 68 3 18 7 72 10 120 4 66 11 98 30 135 13 26 29 70 35 98 6 29 14
46 18 40 11 -17 48 57 56 112 4 26 11 49 15 52 4 3 28 7 51 10 24 3 51 8 59
10 8 3 40 7 70 11 30 3 69 8 85 10 17 2 73 7 125 10 52 3 96 7 97 8 5 4 388 4
395 0z m429 -321 c0 -5 2 -17 4 -28 4 -21 14 -133 21 -229 2 -32 2 -62 -1 -66
-3 -4 -34 -2 -70 5 -36 6 -65 10 -65 8 0 -2 -9 1 -21 7 -11 7 -31 13 -43 16
-29 5 -149 53 -161 65 -11 11 54 81 105 112 19 11 37 24 40 27 3 3 37 20 75
38 39 18 77 37 85 42 19 11 30 12 31 3z m-3483 -79 c59 -20 112 -41 118 -48 6
-6 14 -26 17 -43 7 -38 7 -38 -78 -17 -93 23 -151 29 -277 29 -130 -1 -130 -1
-8 55 41 19 84 40 95 47 24 16 10 19 133 -23z m-695 -226 c6 -41 4 -44 -44
-68 l-39 -21 6 33 c13 72 22 88 49 88 18 0 24 -7 28 -32z m-2673 -303 c16 -57
15 -101 -1 -122 -17 -19 -78 -13 -134 12 -61 29 -210 132 -194 136 2 0 35 3
74 5 38 3 70 6 71 7 1 1 40 3 87 5 l84 3 13 -46z m6861 -229 c4 -26 -7 -149
-16 -189 -3 -12 -7 -35 -9 -51 -3 -16 -7 -30 -9 -33 -16 -15 -184 257 -172
277 7 12 205 8 206 -4z m-3261 -1173 c25 -11 74 -48 110 -83 115 -110 258
-243 272 -251 7 -4 10 -10 7 -13 -6 -6 -175 -76 -199 -82 -8 -2 -55 -15 -105
-29 -49 -14 -103 -28 -120 -30 -16 -3 -55 -10 -85 -15 -180 -32 -436 -30 -672
5 -54 8 -102 15 -108 15 -19 0 -10 16 18 32 28 17 141 100 177 130 11 9 49 41
85 70 36 29 82 69 103 88 21 19 46 39 55 44 10 5 20 13 23 19 14 20 180 105
220 112 19 3 36 9 39 12 11 12 138 -5 180 -24z"/>
<path d="M4400 5931 c-30 -10 -80 -30 -110 -44 -160 -74 -375 -103 -486 -67
-20 7 -41 13 -47 14 -7 2 -19 6 -27 9 -106 43 -240 63 -307 45 -58 -15 -35
-24 65 -25 85 0 110 -5 207 -38 102 -35 119 -38 235 -40 69 -1 140 2 159 7 18
5 43 11 54 14 38 7 92 27 157 57 36 16 92 37 125 46 33 9 63 21 65 26 8 17
-32 15 -90 -4z"/>
<path d="M4355 5810 c-44 -15 -102 -39 -130 -53 -87 -43 -149 -67 -196 -75
-76 -14 -197 -5 -289 23 -171 52 -231 65 -318 69 -85 4 -125 -4 -109 -20 4 -5
47 -9 95 -10 100 -2 149 -8 212 -29 25 -8 50 -15 55 -16 6 0 15 -5 20 -9 6 -5
22 -11 35 -14 14 -3 45 -10 70 -16 59 -15 192 -15 254 -1 26 6 83 28 125 47
169 80 223 98 301 100 41 2 77 3 80 3 2 1 -1 6 -8 13 -23 23 -114 18 -197 -12z"/>
<path d="M5593 5281 c-47 -12 -126 -56 -207 -114 -80 -58 -97 -73 -91 -79 3
-2 7 -22 10 -44 3 -21 8 -50 11 -64 6 -34 11 -66 19 -125 3 -27 8 -58 11 -67
3 -10 1 -18 -4 -18 -5 0 -13 26 -17 58 -7 61 -14 113 -20 142 -2 10 -7 39 -10
64 -4 25 -10 46 -14 46 -20 0 -177 -186 -210 -249 -11 -20 -10 -26 11 -50 60
-65 85 -139 83 -241 -1 -42 -8 -92 -14 -113 -7 -20 -10 -45 -7 -55 3 -10 8
-38 11 -62 3 -25 7 -57 9 -71 5 -37 55 -145 77 -165 16 -14 21 -15 35 -3 50
41 73 179 71 421 -1 102 1 184 5 182 4 -2 7 -17 7 -32 4 -239 10 -256 58 -187
34 49 65 193 67 313 0 40 15 62 17 25 0 -10 3 -27 5 -38 11 -46 34 -192 40
-245 3 -25 7 -63 9 -85 24 -217 24 -739 -1 -920 -2 -16 -6 -50 -9 -75 -3 -25
-8 -58 -11 -75 -2 -16 -7 -46 -9 -65 -3 -19 -12 -66 -21 -105 -8 -38 -17 -79
-19 -90 -20 -94 -40 -142 -43 -102 0 6 -3 28 -7 47 -3 19 -7 46 -10 60 -14 90
-48 190 -64 190 -30 -1 -75 -91 -67 -134 4 -17 9 -49 12 -71 3 -22 9 -65 14
-95 11 -66 23 -225 23 -297 0 -29 1 -53 3 -53 20 0 138 325 169 470 3 11 8 30
11 43 3 12 7 36 9 54 2 18 6 36 8 40 4 7 8 28 22 128 4 29 16 141 21 189 29
291 19 742 -21 1006 -3 14 -7 43 -9 65 -3 22 -8 51 -11 65 -3 14 -8 40 -11 59
-3 18 -7 41 -9 50 -2 9 -15 70 -28 136 -14 66 -32 141 -41 167 -8 26 -13 54
-10 61 3 8 40 31 83 51 64 30 90 37 137 37 80 0 102 -4 153 -29 42 -20 68 -21
56 -2 -3 5 -27 19 -53 31 -51 23 -173 34 -229 20z m-241 -556 c2 -19 1 -35 -3
-35 -4 0 -9 16 -11 35 -2 19 -1 35 3 35 4 0 9 -16 11 -35z"/>
<path d="M2826 5008 c-27 -66 -90 -278 -100 -338 -3 -19 -9 -46 -12 -60 -3
-14 -7 -38 -10 -55 -3 -16 -7 -41 -10 -55 -10 -56 -4 -199 11 -254 21 -78 35
-105 66 -128 49 -36 118 7 159 100 35 78 35 103 -2 179 -30 62 -33 76 -33 163
0 81 4 103 26 150 33 71 127 172 184 200 64 31 55 58 -9 29 -22 -11 -30 -7
-76 34 -42 36 -144 97 -163 97 -3 0 -16 -28 -31 -62z"/>
<path d="M1307 3504 c-1 -1 -24 -5 -52 -8 -92 -13 -120 -17 -183 -32 -34 -7
-75 -16 -92 -19 -60 -11 -247 -77 -319 -113 -83 -42 -154 -100 -177 -145 -15
-29 -20 -133 -10 -242 18 -202 33 -263 74 -314 78 -96 242 -111 467 -42 105
33 361 143 558 241 l68 34 -6 61 c-9 88 -24 147 -42 167 -21 24 -64 23 -96 -2
-47 -37 -241 -117 -399 -165 -210 -64 -373 -83 -440 -51 -83 39 -39 98 133
180 216 103 474 181 627 190 23 1 48 8 55 15 7 7 13 50 15 112 5 132 -2 141
-106 137 -40 -1 -74 -3 -75 -4z"/>
<path d="M1660 2743 c-8 -3 -17 -9 -20 -12 -3 -3 -14 -11 -25 -17 -11 -6 -45
-24 -75 -41 -30 -17 -77 -43 -105 -57 -27 -15 -68 -37 -90 -50 -22 -12 -93
-50 -158 -85 -65 -34 -134 -71 -154 -82 -20 -11 -89 -47 -155 -80 l-120 -61 6
-36 c7 -52 30 -112 72 -192 54 -103 100 -124 136 -61 14 26 185 151 206 151 4
0 8 -48 9 -107 5 -497 2 -476 75 -509 41 -18 144 -24 211 -10 43 8 45 20 21
87 -24 67 -40 416 -19 412 29 -4 75 -13 120 -21 27 -6 97 -9 155 -8 95 1 110
4 158 30 85 47 96 73 95 235 0 175 -14 204 -133 276 -71 43 -88 63 -116 139
-15 39 -37 78 -48 88 -23 19 -24 19 -46 11z m24 -389 c80 -32 146 -72 146 -88
0 -24 -60 -40 -144 -38 -98 1 -246 37 -246 59 0 5 33 29 73 55 78 51 75 50
171 12z"/>
<path d="M6108 2648 c-164 -85 -202 -133 -201 -253 1 -78 39 -193 93 -278 16
-26 30 -50 30 -52 0 -8 49 -64 115 -130 121 -123 243 -181 386 -184 101 -2
168 17 251 72 76 51 192 170 204 209 14 44 10 202 -6 258 -7 25 -29 80 -48
123 -27 58 -40 77 -55 77 -32 0 -201 -145 -213 -183 -4 -11 7 -45 26 -82 28
-54 32 -75 35 -152 4 -115 -8 -122 -128 -82 -128 43 -300 184 -381 313 -32 50
-66 130 -66 154 0 43 134 -41 192 -121 11 -15 18 -16 41 -8 34 13 149 126 170
167 16 30 15 33 -6 65 -25 38 -97 77 -197 107 -107 32 -145 29 -242 -20z"/>
<path d="M5629 2127 c-60 -41 -97 -85 -98 -118 -1 -8 23 -40 52 -71 125 -132
317 -351 317 -363 0 -9 -129 61 -245 134 -54 34 -101 61 -106 61 -5 0 -9 3 -9
8 0 4 -33 25 -74 46 -62 32 -81 37 -113 31 -21 -3 -43 -6 -50 -7 -6 -1 -42
-17 -80 -37 -59 -31 -69 -41 -77 -72 -9 -35 -4 -45 75 -180 46 -79 89 -151 94
-161 6 -10 61 -106 124 -215 63 -109 119 -207 125 -218 6 -11 14 -22 18 -25 4
-3 8 -25 9 -48 4 -55 26 -76 71 -67 107 24 257 90 290 127 31 36 17 87 -28
102 -28 9 -62 46 -133 146 -33 47 -64 90 -68 95 -18 22 -44 67 -41 70 2 1 37
-14 78 -34 41 -20 127 -60 190 -89 63 -30 129 -65 147 -78 17 -13 40 -24 51
-24 61 0 289 153 336 225 25 38 13 75 -37 114 -90 69 -623 579 -694 664 -13
15 -32 27 -42 27 -11 0 -48 -19 -82 -43z"/>
<path d="M2079 1931 c-57 -60 -165 -173 -239 -252 -74 -78 -172 -180 -217
-225 -78 -80 -81 -85 -73 -115 18 -62 95 -201 148 -268 39 -48 68 -63 163 -84
237 -52 500 3 592 124 50 67 52 143 6 262 -12 31 -20 60 -17 63 3 2 16 7 28 9
87 17 173 63 201 108 23 38 24 68 4 123 -8 23 -16 63 -19 89 -7 78 -68 123
-246 180 -129 42 -137 45 -165 71 -14 13 -34 24 -44 24 -10 0 -65 -49 -122
-109z m344 -217 c60 -20 50 -38 -31 -55 -68 -14 -202 -21 -202 -11 0 5 18 27
40 51 40 43 41 43 93 37 29 -4 74 -14 100 -22z m-339 -315 c22 -6 48 -14 56
-17 8 -3 20 -6 25 -7 51 -11 125 -41 125 -49 -1 -13 -25 -46 -34 -46 -3 0 -24
-11 -46 -25 -22 -14 -40 -23 -40 -21 0 3 -19 -1 -41 -9 -76 -27 -259 -22 -259
7 0 5 29 48 66 94 70 90 75 93 148 73z"/>
<path d="M2878 1650 c-37 -22 -191 -303 -257 -470 -71 -180 -102 -341 -87
-445 12 -75 64 -121 294 -259 77 -46 165 -78 214 -78 82 1 190 87 245 197 27
53 73 168 79 199 2 10 10 42 18 70 16 56 60 265 71 336 1 8 6 33 10 55 10 53
12 66 20 118 6 40 4 46 -20 65 -35 27 -126 71 -162 77 -46 9 -64 -15 -74 -97
-13 -112 -47 -248 -105 -413 -36 -105 -131 -305 -145 -305 -4 0 -10 -8 -13
-17 -7 -22 -69 -63 -95 -63 -32 0 -44 27 -44 98 1 157 135 598 221 724 47 69
47 74 0 119 -47 44 -126 99 -142 99 -6 0 -18 -5 -28 -10z"/>
<path d="M4748 1545 c-1 -1 -37 -5 -78 -9 -75 -6 -147 -19 -157 -30 -3 -3 -2
-27 3 -53 10 -64 5 -212 -11 -333 -3 -19 -7 -57 -10 -85 -8 -77 -13 -117 -20
-155 -4 -19 -8 -48 -10 -64 -2 -16 -10 -33 -20 -38 -9 -6 -32 -25 -51 -44 -31
-30 -34 -36 -23 -56 7 -13 18 -27 25 -33 10 -8 7 -28 -18 -95 -17 -47 -31
-101 -32 -120 -1 -34 1 -35 49 -48 69 -17 199 -23 235 -11 32 12 33 15 66 153
16 67 22 78 53 99 44 29 275 157 283 157 3 0 34 -38 69 -85 38 -51 73 -88 90
-94 68 -23 310 35 324 78 10 32 -23 94 -63 121 -148 99 -350 347 -517 635 -32
55 -59 101 -60 102 -2 4 -123 12 -127 8z m82 -471 c0 -2 14 -27 31 -55 18 -28
28 -54 23 -59 -10 -9 -122 -70 -129 -70 -3 0 -2 44 1 98 4 53 8 117 9 142 2
25 3 47 4 50 1 5 61 -100 61 -106z"/>
<path d="M3628 1453 c-21 -5 -20 -1 -23 -78 -1 -33 -5 -82 -8 -110 -4 -27 -9
-70 -12 -95 -2 -25 -7 -64 -10 -87 -3 -24 -7 -62 -10 -85 -3 -24 -8 -63 -11
-88 -3 -25 -7 -56 -9 -70 -4 -38 -16 -132 -20 -160 -2 -14 -6 -47 -10 -75 -3
-27 -8 -66 -10 -85 -17 -119 -17 -117 3 -136 24 -22 86 -55 132 -69 133 -41
191 -45 234 -14 39 29 348 134 360 122 3 -3 18 4 34 16 31 22 55 71 43 88 -18
28 -197 107 -239 105 -15 -1 -61 -14 -102 -30 -41 -16 -89 -33 -106 -36 l-32
-7 4 158 c9 436 15 566 30 594 28 55 13 75 -87 115 -64 25 -118 34 -151 27z"/>
</g>
</svg>
